<svg width="51" height="51" viewBox="0 0 51 51" fill="none" xmlns="http://www.w3.org/2000/svg">
<g clip-path="url(#clip0_364_264)">
<path d="M25.5 12.75C27.8587 12.75 29.75 10.8375 29.75 8.5C29.75 7.6925 29.5375 6.94875 29.1338 6.31125L25.5 0L21.8663 6.31125C21.4625 6.94875 21.25 7.6925 21.25 8.5C21.25 10.8375 23.1625 12.75 25.5 12.75ZM35.275 33.9787L33.0012 31.705L30.7062 33.9787C27.9438 36.7412 23.0988 36.7625 20.315 33.9787L18.0412 31.705L15.725 33.9787C14.3438 35.36 12.495 36.125 10.54 36.125C8.98875 36.125 7.565 35.6362 6.375 34.8288V44.625C6.375 45.7938 7.33125 46.75 8.5 46.75H42.5C43.6688 46.75 44.625 45.7938 44.625 44.625V34.8288C43.435 35.6362 42.0113 36.125 40.46 36.125C38.505 36.125 36.6562 35.36 35.275 33.9787ZM38.25 19.125H27.625V14.875H23.375V19.125H12.75C9.2225 19.125 6.375 21.9725 6.375 25.5V28.7725C6.375 31.0675 8.245 32.9375 10.54 32.9375C11.645 32.9375 12.7075 32.5125 13.4725 31.7262L18.02 27.2L22.5462 31.7262C24.1187 33.2988 26.86 33.2988 28.4325 31.7262L32.98 27.2L37.5062 31.7262C38.2925 32.5125 39.3338 32.9375 40.4388 32.9375C42.7338 32.9375 44.6037 31.0675 44.6037 28.7725V25.5C44.625 21.9725 41.7775 19.125 38.25 19.125Z" fill="white"/>
</g>
<defs>
<clipPath id="clip0_364_264">
<rect width="51" height="51" fill="white"/>
</clipPath>
</defs>
</svg>
