<svg width="51" height="51" viewBox="0 0 51 51" fill="none" xmlns="http://www.w3.org/2000/svg">
<g clip-path="url(#clip0_364_260)">
<path d="M38.3775 48.8537H41.905C43.69 48.8537 45.1562 47.4938 45.3688 45.7513L48.875 10.7313H38.25V2.125H34.0638V10.7313H23.5025L24.14 15.7037C27.7738 16.7025 31.1737 18.5087 33.2138 20.5062C36.2738 23.5237 38.3775 26.6475 38.3775 31.7475V48.8537ZM2.125 46.7287V44.625H34.0638V46.7287C34.0638 47.8975 33.1075 48.8537 31.9175 48.8537H4.27125C3.08125 48.8537 2.125 47.8975 2.125 46.7287ZM34.0638 31.8538C34.0638 14.8537 2.125 14.8537 2.125 31.8538H34.0638ZM2.1675 36.125H34.0425V40.375H2.1675V36.125Z" fill="white"/>
</g>
<defs>
<clipPath id="clip0_364_260">
<rect width="51" height="51" fill="white"/>
</clipPath>
</defs>
</svg>
