<svg width="650" height="650" viewBox="0 0 650 650" fill="none" xmlns="http://www.w3.org/2000/svg">
<path d="M323.765 631.865C492.926 631.865 630.058 552.691 630.058 455.026C630.058 357.361 492.926 278.187 323.765 278.187C154.604 278.187 17.4719 357.361 17.4719 455.026C17.4719 552.691 154.604 631.865 323.765 631.865Z" fill="#F0F0F0"/>
<path d="M499.668 516.386C479.583 504.79 479.583 485.992 499.668 474.396C519.753 462.8 552.318 462.8 572.403 474.396C592.488 485.992 592.488 504.79 572.403 516.386C552.318 527.982 519.753 527.982 499.668 516.386Z" fill="#E0E0E0"/>
<path d="M91.1561 517.998L38.3241 487.5C35.3471 485.784 35.3471 482.989 38.3241 481.273L345.631 303.849C347.301 303.003 349.147 302.562 351.02 302.562C352.892 302.562 354.738 303.003 356.408 303.849L409.253 334.347C412.23 336.063 412.23 338.858 409.253 340.574L101.946 517.998C100.274 518.844 98.4255 519.285 96.5511 519.285C94.6766 519.285 92.8285 518.844 91.1561 517.998Z" fill="#E0E0E0"/>
<path d="M281.06 463.632L326.482 437.372C331.162 434.668 333.502 431.132 333.502 427.583C333.502 424.034 333.502 421.265 333.502 421.265L286.39 394.693C285.074 393.842 283.978 392.692 283.192 391.336C282.405 389.98 281.951 388.458 281.866 386.893V330.876L202.566 376.714V432.705C202.657 434.268 203.114 435.789 203.9 437.143C204.686 438.498 205.778 439.649 207.09 440.505L247.182 463.593C256.516 469.04 271.7 469.04 281.06 463.632Z" fill="#3451FF"/>
<g opacity="0.6">
<path d="M281.06 463.632L326.482 437.372C331.162 434.668 333.502 431.132 333.502 427.583C333.502 424.034 333.502 421.265 333.502 421.265L286.39 394.693C285.074 393.842 283.978 392.692 283.192 391.336C282.405 389.98 281.951 388.458 281.866 386.893V330.876L202.566 376.714V432.705C202.657 434.268 203.114 435.789 203.9 437.143C204.686 438.498 205.778 439.649 207.09 440.505L247.182 463.593C256.516 469.04 271.7 469.04 281.06 463.632Z" fill="black"/>
</g>
<path opacity="0.3" d="M221.585 442.624V448.916L207.051 440.531C205.739 439.676 204.648 438.525 203.864 437.17C203.08 435.815 202.627 434.294 202.54 432.731V376.714L217.646 367.991C217.958 371.826 218.296 375.791 218.621 379.691L208 385.801V429.546C208.084 431.111 208.538 432.634 209.324 433.99C210.111 435.346 211.207 436.496 212.524 437.346L221.585 442.624Z" fill="black"/>
<path d="M208 429.559C208.089 431.123 208.545 432.644 209.331 433.999C210.117 435.354 211.211 436.505 212.524 437.359L247.13 457.301C256.49 462.696 271.674 462.709 281.047 457.301L326.547 431.041C335.92 425.633 335.92 416.871 326.547 411.463L291.915 391.521C290.605 390.665 289.514 389.513 288.731 388.158C287.947 386.803 287.493 385.284 287.404 383.721V339.963L208.104 385.801L208 429.559Z" fill="#3451FF"/>
<path opacity="0.3" d="M208 429.559C208.089 431.123 208.545 432.644 209.331 433.999C210.117 435.354 211.211 436.505 212.524 437.359L247.13 457.301C256.49 462.696 271.674 462.709 281.047 457.301L326.547 431.041C335.92 425.633 335.92 416.871 326.547 411.463L291.915 391.521C290.605 390.665 289.514 389.513 288.731 388.158C287.947 386.803 287.493 385.284 287.404 383.721V339.963L208.104 385.801L208 429.559Z" fill="black"/>
<path opacity="0.5" d="M301.08 396.864L291.863 391.547C290.553 390.691 289.462 389.539 288.679 388.184C287.895 386.829 287.441 385.309 287.352 383.747V339.963L208.052 385.801V429.559C208.141 431.123 208.597 432.644 209.383 433.999C210.169 435.354 211.263 436.505 212.576 437.359L221.676 442.559L301.08 396.864Z" fill="black"/>
<path d="M333.515 421.278V427.596C333.515 431.145 331.162 434.668 326.495 437.385L280.995 463.632C276.015 466.29 270.454 467.67 264.81 467.649V461.357C270.454 461.378 276.015 459.998 280.995 457.34L326.495 431.067C331.162 428.376 333.515 424.827 333.515 421.278Z" fill="#3451FF"/>
<path opacity="0.5" d="M333.515 421.278V427.596C333.515 431.145 331.162 434.668 326.495 437.385L280.995 463.632C276.015 466.29 270.454 467.67 264.81 467.649V461.357C270.454 461.378 276.015 459.998 280.995 457.34L326.495 431.067C331.162 428.376 333.515 424.827 333.515 421.278Z" fill="black"/>
<path d="M80.5999 483.938C82.3142 484.766 84.1991 485.18 86.1026 485.146C88.0062 485.112 89.8751 484.631 91.5589 483.743L398.359 306.618C400.004 305.545 401.373 304.1 402.356 302.399C403.338 300.698 403.906 298.79 404.014 296.829V48.633C403.955 46.7251 403.447 44.8581 402.529 43.184C401.612 41.51 400.312 40.0764 398.736 39C397.024 38.1711 395.14 37.7579 393.238 37.794C391.336 37.8302 389.469 38.3146 387.79 39.208L80.9899 216.385C79.3506 217.465 77.9897 218.917 77.0182 220.622C76.0467 222.328 75.4922 224.239 75.3999 226.2V474.357C75.4579 476.249 75.9585 478.101 76.8615 479.765C77.7645 481.429 79.0449 482.858 80.5999 483.938Z" fill="#3451FF"/>
<path d="M91.5979 483.73L398.398 306.605C400.045 305.534 401.416 304.09 402.399 302.388C403.381 300.687 403.948 298.778 404.053 296.816V48.633C404.053 45.032 401.518 43.563 398.398 45.37L91.5979 222.495C89.9521 223.567 88.5823 225.012 87.5998 226.713C86.6172 228.414 86.0496 230.323 85.9429 232.284V480.467C85.9429 484.068 88.4779 485.537 91.5979 483.73Z" fill="#3451FF"/>
<path opacity="0.5" d="M91.5979 483.73L398.398 306.605C400.045 305.534 401.416 304.09 402.399 302.388C403.381 300.687 403.948 298.778 404.053 296.816V48.633C404.053 45.032 401.518 43.563 398.398 45.37L91.5979 222.495C89.9521 223.567 88.5823 225.012 87.5998 226.713C86.6172 228.414 86.0496 230.323 85.9429 232.284V480.467C85.9429 484.068 88.4779 485.537 91.5979 483.73Z" fill="black"/>
<path d="M90.7659 490.178C89.1571 490.88 87.4151 491.225 85.6601 491.189C83.905 491.154 82.1786 490.737 80.5999 489.97C79.0414 488.888 77.7589 487.454 76.8557 485.786C75.9525 484.117 75.4539 482.26 75.3999 480.363V457.769L85.9949 463.905V486.499C85.9299 489.788 88.0229 491.283 90.7659 490.178Z" fill="#3451FF"/>
<path opacity="0.5" d="M90.7659 490.178C89.1571 490.88 87.4151 491.225 85.6601 491.189C83.905 491.154 82.1786 490.737 80.5999 489.97C79.0414 488.888 77.7589 487.454 76.8557 485.786C75.9525 484.117 75.4539 482.26 75.3999 480.363V457.769L85.9949 463.905V486.499C85.9299 489.788 88.0229 491.283 90.7659 490.178Z" fill="black"/>
<path d="M85.9299 463.905V486.499C85.9299 490.1 88.5299 491.556 91.5849 489.762L398.385 312.637C400.023 311.569 401.388 310.132 402.37 308.441C403.352 306.75 403.924 304.852 404.04 302.9V280.202L85.9299 463.905Z" fill="#3451FF"/>
<path opacity="0.3" d="M85.9429 463.853V486.499C85.9429 490.1 88.5429 491.556 91.5979 489.762L398.398 312.637C400.034 311.568 401.396 310.13 402.376 308.439C403.356 306.748 403.926 304.851 404.04 302.9V280.202L85.9429 463.853Z" fill="black"/>
<path d="M96.5378 435.5V235.807C96.5984 234.631 96.9361 233.485 97.5235 232.464C98.1109 231.443 98.9313 230.575 99.9178 229.931L390 62.4C391.872 61.321 393.393 62.192 393.393 64.35V264.147C393.33 265.324 392.99 266.47 392.4 267.491C391.81 268.512 390.988 269.38 390 270.023L99.9308 437.515C98.0588 438.594 96.5378 437.71 96.5378 435.5Z" fill="#3451FF"/>
<path d="M96.5378 435.5V235.807C96.5984 234.631 96.9361 233.485 97.5235 232.464C98.1109 231.443 98.9313 230.575 99.9178 229.931L390 62.4C391.872 61.321 393.393 62.192 393.393 64.35V264.147C393.33 265.324 392.99 266.47 392.4 267.491C391.81 268.512 390.988 269.38 390 270.023L99.9308 437.515C98.0588 438.594 96.5378 437.71 96.5378 435.5Z" fill="#263238"/>
<path d="M244.985 379.249C243.441 380.253 242.156 381.608 241.234 383.203C240.312 384.798 239.78 386.588 239.681 388.427C239.681 391.807 242.06 393.185 244.985 391.495C246.531 390.489 247.817 389.133 248.739 387.535C249.661 385.938 250.192 384.146 250.289 382.304C250.289 378.924 247.91 377.559 244.985 379.249Z" fill="#3451FF"/>
<path opacity="0.7" d="M87.6069 226.694C86.5994 228.388 86.0235 230.303 85.9299 232.271V463.905L75.3999 457.769V226.2C75.4681 224.225 76.041 222.301 77.0639 220.61L87.6069 226.694Z" fill="black"/>
<path opacity="0.3" d="M403.988 47.697C403.585 44.785 401.232 43.797 398.385 45.37L91.5848 222.495C89.9214 223.535 88.5484 224.98 87.5938 226.694L76.9858 220.571C77.9468 218.857 79.3238 217.413 80.9898 216.372L387.79 39.26C389.472 38.3665 391.34 37.882 393.245 37.8459C395.149 37.8097 397.034 38.223 398.749 39.052C400.19 40.034 401.404 41.3139 402.307 42.8054C403.211 44.2968 403.784 45.965 403.988 47.697Z" fill="black"/>
<path d="M420.537 78.247C420.081 78.0183 419.572 77.9181 419.063 77.957C418.555 77.9959 418.067 78.1726 417.651 78.468L128.167 245.7C127.025 246.456 126.076 247.47 125.399 248.66C124.721 249.85 124.333 251.183 124.267 252.551V451.022C124.226 451.692 124.359 452.361 124.653 452.965C124.947 453.568 125.392 454.086 125.944 454.467C126.581 454.818 129.987 456.794 131.001 457.34C131.36 457.523 131.76 457.607 132.162 457.584C132.564 457.561 132.953 457.432 133.289 457.21L422.708 289.978C423.85 289.222 424.798 288.208 425.476 287.018C426.154 285.828 426.541 284.495 426.608 283.127V83.629C426.666 83.1249 426.582 82.6145 426.367 82.1553C426.151 81.696 425.811 81.306 425.386 81.029C424.736 80.6 421.265 78.676 420.537 78.247Z" fill="#3451FF"/>
<path d="M133.224 248.508L422.721 81.341C424.905 80.041 426.621 81.107 426.621 83.629V283.127C426.554 284.495 426.167 285.828 425.489 287.018C424.811 288.208 423.863 289.222 422.721 289.978L133.224 457.21C131.04 458.51 129.324 456.417 129.324 453.895V255.359C129.393 253.992 129.781 252.659 130.459 251.469C131.136 250.279 132.083 249.265 133.224 248.508Z" fill="#FAFAFA"/>
<path d="M424.489 82.095C425.256 82.095 425.373 83.057 425.373 83.629V283.127C425.303 284.272 424.967 285.386 424.391 286.379C423.816 287.372 423.017 288.217 422.058 288.847L132.6 456.079C132.406 456.205 132.181 456.277 131.95 456.287C131.222 456.287 130.65 455.169 130.65 453.895V255.359C130.713 254.214 131.039 253.099 131.602 252.1C132.166 251.101 132.952 250.246 133.9 249.6L423.371 82.459C423.706 82.2429 424.091 82.1175 424.489 82.095ZM424.489 80.795C423.862 80.8217 423.253 81.0097 422.721 81.341L133.224 248.508C132.083 249.265 131.136 250.279 130.459 251.469C129.781 252.659 129.393 253.992 129.324 255.359V453.895C129.324 455.897 130.442 457.587 131.924 457.587C132.383 457.578 132.832 457.448 133.224 457.21L422.708 289.978C423.85 289.222 424.798 288.208 425.476 287.018C426.154 285.828 426.541 284.495 426.608 283.127V83.629C426.608 81.835 425.724 80.795 424.424 80.795H424.489Z" fill="#E0E0E0"/>
<path d="M125.866 454.467C126.295 454.688 129.376 456.443 130.728 457.223C130.243 456.82 129.858 456.31 129.605 455.732C129.352 455.154 129.238 454.525 129.272 453.895V268.32L124.202 265.356V451.022C124.16 451.691 124.291 452.359 124.583 452.963C124.874 453.566 125.316 454.084 125.866 454.467Z" fill="#F0F0F0"/>
<path d="M426.673 83.59C426.673 81.094 424.892 80.08 422.773 81.341L133.224 248.508C132.083 249.265 131.136 250.279 130.459 251.469C129.781 252.659 129.393 253.992 129.324 255.359V268.359L426.673 96.59V83.59Z" fill="#3451FF"/>
<g opacity="0.4">
<path d="M422.721 81.341L133.224 248.495C132.062 249.228 131.105 250.243 130.442 251.446L125.411 248.521C126.073 247.36 127.022 246.389 128.167 245.7L417.651 78.468C418.065 78.1705 418.553 77.9916 419.061 77.9503C419.57 77.9091 420.08 78.0072 420.537 78.234C421.239 78.676 424.528 80.535 425.373 80.99C424.936 80.8279 424.466 80.7751 424.003 80.8363C423.541 80.8975 423.101 81.0708 422.721 81.341Z" fill="white"/>
</g>
<path opacity="0.15" d="M124.202 265.369V252.486C124.255 251.082 124.672 249.716 125.411 248.521L130.455 251.433C129.726 252.607 129.319 253.952 129.272 255.333V268.333L124.202 265.369Z" fill="black"/>
<path d="M365.625 233.246L192.244 333.346C191.401 333.893 190.699 334.632 190.195 335.501C189.691 336.371 189.4 337.347 189.345 338.351V388.063C189.4 389.067 189.691 390.043 190.195 390.913C190.699 391.782 191.401 392.521 192.244 393.068L197.301 395.98C198.2 396.435 199.193 396.672 200.2 396.672C201.207 396.672 202.2 396.435 203.099 395.98L376.454 295.88C377.297 295.33 377.999 294.589 378.503 293.717C379.007 292.846 379.298 291.867 379.353 290.862V241.137C379.298 240.133 379.007 239.157 378.503 238.287C377.999 237.418 377.297 236.679 376.454 236.132L371.384 233.22C370.489 232.773 369.502 232.542 368.501 232.547C367.501 232.551 366.516 232.791 365.625 233.246Z" fill="#3451FF"/>
<path opacity="0.5" d="M379.353 240.695C379.145 239.2 377.936 238.654 376.48 239.499L203.099 339.599C202.244 340.13 201.541 340.874 201.058 341.757L190.203 335.491C190.689 334.622 191.387 333.888 192.231 333.359L365.625 233.259C366.521 232.803 367.512 232.566 368.517 232.566C369.523 232.566 370.514 232.803 371.41 233.259L376.48 236.171C377.253 236.678 377.909 237.343 378.404 238.123C378.9 238.903 379.223 239.78 379.353 240.695Z" fill="white"/>
<path d="M202.605 396.227C201.756 396.562 200.846 396.714 199.935 396.673C199.023 396.633 198.13 396.401 197.314 395.993L192.244 393.081C191.402 392.532 190.701 391.794 190.198 390.924C189.694 390.055 189.402 389.079 189.345 388.076V338.364C189.384 337.349 189.679 336.361 190.203 335.491L201.058 341.757C200.53 342.616 200.235 343.597 200.2 344.604V394.329C200.2 395.98 201.24 396.747 202.605 396.227Z" fill="#263238"/>
<path d="M203.099 339.599L376.48 239.499C378.079 238.576 379.379 239.317 379.379 241.163V290.888C379.324 291.893 379.033 292.872 378.529 293.743C378.025 294.615 377.324 295.356 376.48 295.906L203.125 396.006C201.526 396.929 200.226 396.175 200.226 394.329V344.617C200.278 343.614 200.565 342.637 201.065 341.766C201.564 340.894 202.26 340.152 203.099 339.599Z" fill="#3451FF"/>
<path d="M319.657 259.792L192.257 333.359C191.413 333.888 190.716 334.622 190.229 335.491L201.084 341.757C201.567 340.874 202.27 340.13 203.125 339.599L330.525 266.045L319.657 259.792Z" fill="#455A64"/>
<path d="M330.499 266.045L203.099 339.599C202.256 340.149 201.554 340.89 201.05 341.762C200.546 342.633 200.255 343.612 200.2 344.617V394.316C200.2 396.162 201.5 396.916 203.099 395.993L330.499 322.439V266.045Z" fill="#37474F"/>
<path d="M232.479 333.541L298.22 295.594C300.937 294.021 303.147 295.139 303.147 298.09C303.026 299.747 302.515 301.353 301.657 302.776C300.798 304.199 299.616 305.399 298.207 306.28L232.479 344.24C229.762 345.813 227.539 344.695 227.539 341.744C227.662 340.085 228.173 338.478 229.031 337.053C229.889 335.628 231.07 334.425 232.479 333.541Z" fill="#3451FF"/>
<path d="M245.947 346.112C245.959 346.098 245.974 346.087 245.991 346.08C246.008 346.072 246.026 346.068 246.045 346.068C246.063 346.068 246.081 346.072 246.098 346.08C246.115 346.087 246.13 346.098 246.142 346.112C246.2 346.2 246.228 346.305 246.22 346.411V353.808C246.221 354.523 246.16 355.236 246.038 355.94C245.931 356.583 245.747 357.212 245.492 357.812C245.259 358.362 244.953 358.878 244.582 359.346C244.216 359.78 243.776 360.146 243.282 360.425C242.895 360.677 242.444 360.813 241.982 360.815C241.806 360.801 241.634 360.751 241.477 360.668C241.321 360.586 241.183 360.472 241.072 360.334C240.787 359.952 240.599 359.505 240.526 359.034C240.402 358.405 240.345 357.764 240.357 357.123V349.713C240.357 349.583 240.383 349.455 240.435 349.336C240.467 349.229 240.536 349.137 240.63 349.076L241.449 348.595C241.476 348.57 241.51 348.557 241.547 348.557C241.583 348.557 241.618 348.57 241.644 348.595C241.704 348.683 241.732 348.788 241.722 348.894V356.2C241.712 356.602 241.751 357.004 241.839 357.396C241.875 357.647 241.983 357.882 242.151 358.072C242.21 358.142 242.283 358.197 242.367 358.233C242.45 358.269 242.541 358.285 242.632 358.28C242.854 358.265 243.069 358.194 243.256 358.072C243.487 357.934 243.697 357.763 243.88 357.565C244.083 357.331 244.249 357.068 244.374 356.785C244.521 356.452 244.63 356.103 244.699 355.745C244.775 355.316 244.81 354.881 244.803 354.445V347.126C244.807 346.995 244.838 346.867 244.894 346.749C244.926 346.642 244.995 346.55 245.089 346.489L245.947 346.112Z" fill="#FAFAFA"/>
<path d="M251.043 353.106C251.05 353.011 251.027 352.915 250.978 352.833C250.947 352.799 250.908 352.773 250.866 352.757C250.823 352.742 250.776 352.736 250.731 352.742C250.571 352.72 250.41 352.72 250.25 352.742L249.496 352.885C249.253 352.946 248.998 352.946 248.755 352.885C248.564 352.824 248.399 352.7 248.287 352.534C248.16 352.323 248.076 352.089 248.04 351.845C247.913 351.149 247.913 350.435 248.04 349.739C248.137 349.34 248.277 348.952 248.456 348.582C248.634 348.213 248.852 347.864 249.106 347.542C249.352 347.235 249.651 346.975 249.99 346.775C250.263 346.608 250.569 346.502 250.887 346.463C251.118 346.439 251.35 346.489 251.55 346.606C251.741 346.722 251.89 346.895 251.979 347.1C252.084 347.343 252.141 347.603 252.148 347.867C252.161 347.998 252.134 348.129 252.07 348.244C252.038 348.351 251.969 348.443 251.875 348.504L251.095 348.959C251.059 348.98 251.019 348.99 250.978 348.99C250.937 348.99 250.896 348.98 250.861 348.959L250.692 348.829C250.625 348.776 250.543 348.744 250.458 348.738C250.291 348.757 250.13 348.815 249.99 348.907C249.786 349.03 249.605 349.189 249.457 349.375C249.3 349.58 249.217 349.832 249.223 350.09C249.205 350.189 249.205 350.29 249.223 350.389C249.248 350.426 249.281 350.456 249.319 350.479C249.357 350.501 249.4 350.515 249.444 350.519C249.586 350.543 249.731 350.543 249.873 350.519L250.601 350.389C251.212 350.272 251.628 350.389 251.901 350.727C252.188 351.209 252.319 351.767 252.278 352.326C252.275 352.712 252.222 353.097 252.122 353.47C252.019 353.875 251.871 354.268 251.68 354.64C251.489 355.025 251.249 355.383 250.965 355.706C250.696 356.022 250.375 356.29 250.016 356.499C249.73 356.682 249.405 356.793 249.067 356.824C248.823 356.833 248.582 356.764 248.378 356.629C248.177 356.492 248.023 356.297 247.936 356.07C247.831 355.823 247.778 355.558 247.78 355.29C247.768 355.155 247.795 355.02 247.858 354.9C247.89 354.793 247.959 354.701 248.053 354.64L248.833 354.185C248.937 354.185 249.015 354.12 249.067 354.185L249.236 354.367C249.27 354.406 249.312 354.437 249.359 354.46C249.406 354.482 249.457 354.495 249.509 354.497C249.692 354.498 249.87 354.439 250.016 354.328C250.251 354.195 250.462 354.023 250.64 353.821C250.728 353.714 250.803 353.596 250.861 353.47C250.953 353.367 251.016 353.241 251.043 353.106Z" fill="#FAFAFA"/>
<path d="M253.695 349.583C253.693 348.908 253.749 348.233 253.864 347.568C253.973 346.942 254.142 346.328 254.371 345.735C254.562 345.204 254.825 344.701 255.151 344.24C255.423 343.844 255.778 343.511 256.191 343.265C256.492 343.062 256.86 342.983 257.218 343.044C257.536 343.118 257.814 343.308 257.998 343.577C258.243 343.93 258.415 344.327 258.505 344.747C258.63 345.293 258.691 345.851 258.687 346.411V347.217C258.691 347.353 258.66 347.487 258.596 347.607C258.564 347.714 258.495 347.806 258.401 347.867L255.021 349.83C255.013 350.059 255.044 350.287 255.112 350.506C255.162 350.653 255.252 350.784 255.372 350.883C255.479 350.968 255.613 351.009 255.749 351C255.906 350.981 256.057 350.928 256.191 350.844C256.388 350.737 256.564 350.596 256.711 350.428C256.844 350.278 256.958 350.112 257.049 349.934C257.105 349.831 257.165 349.732 257.231 349.635C257.287 349.569 257.353 349.512 257.426 349.466L258.232 348.998C258.26 348.976 258.294 348.964 258.329 348.964C258.365 348.964 258.399 348.976 258.427 348.998C258.461 349.039 258.486 349.087 258.499 349.139C258.513 349.19 258.515 349.244 258.505 349.297C258.491 349.55 258.438 349.8 258.349 350.038C258.237 350.399 258.089 350.747 257.907 351.078C257.704 351.459 257.459 351.816 257.179 352.144C256.899 352.479 256.565 352.765 256.191 352.989C255.884 353.19 255.516 353.278 255.151 353.236C254.831 353.159 254.553 352.964 254.371 352.69C254.115 352.296 253.943 351.853 253.864 351.39C253.746 350.795 253.689 350.19 253.695 349.583ZM256.191 345.436C255.991 345.544 255.818 345.695 255.684 345.878C255.54 346.06 255.422 346.261 255.333 346.476C255.242 346.691 255.168 346.912 255.112 347.139C255.066 347.344 255.036 347.553 255.021 347.763L257.309 346.463C257.296 346.284 257.27 346.106 257.231 345.93C257.211 345.773 257.148 345.624 257.049 345.501C257.01 345.445 256.96 345.397 256.902 345.362C256.844 345.326 256.779 345.302 256.711 345.293C256.526 345.277 256.342 345.328 256.191 345.436Z" fill="#FAFAFA"/>
<path d="M262.769 341.809C262.375 342.034 262.065 342.381 261.885 342.797C261.683 343.346 261.59 343.929 261.612 344.513V349.206C261.614 349.34 261.587 349.473 261.534 349.596C261.502 349.703 261.433 349.795 261.339 349.856L260.572 350.298C260.56 350.312 260.545 350.323 260.528 350.33C260.511 350.338 260.493 350.342 260.475 350.342C260.456 350.342 260.438 350.338 260.421 350.33C260.404 350.323 260.389 350.312 260.377 350.298C260.319 350.21 260.291 350.105 260.299 349.999V341.588C260.3 341.454 260.326 341.322 260.377 341.198C260.413 341.093 260.482 341.002 260.572 340.938L261.339 340.496C261.366 340.471 261.4 340.458 261.437 340.458C261.473 340.458 261.508 340.471 261.534 340.496C261.594 340.579 261.622 340.68 261.612 340.782V341.198C261.767 340.849 261.959 340.518 262.184 340.21C262.39 339.925 262.656 339.69 262.964 339.521L263.432 339.248C263.456 339.224 263.489 339.211 263.523 339.211C263.557 339.211 263.59 339.224 263.614 339.248C263.677 339.335 263.709 339.44 263.705 339.547V340.73C263.703 340.865 263.672 340.998 263.614 341.12C263.581 341.223 263.518 341.314 263.432 341.38L262.769 341.809Z" fill="#FAFAFA"/>
<path d="M272.467 341.185C272.479 341.171 272.494 341.16 272.511 341.152C272.528 341.145 272.546 341.141 272.565 341.141C272.583 341.141 272.601 341.145 272.618 341.152C272.635 341.16 272.65 341.171 272.662 341.185C272.72 341.273 272.748 341.378 272.74 341.484V342.784C272.739 342.918 272.713 343.05 272.662 343.174C272.617 343.271 272.551 343.355 272.467 343.421L268.021 346.021C267.995 346.046 267.96 346.059 267.924 346.059C267.887 346.059 267.853 346.046 267.826 346.021C267.768 345.938 267.74 345.836 267.748 345.735V334.035C267.749 333.901 267.775 333.769 267.826 333.645C267.862 333.544 267.931 333.457 268.021 333.398L268.84 332.917C268.867 332.892 268.901 332.879 268.938 332.879C268.974 332.879 269.009 332.892 269.035 332.917C269.093 333.001 269.121 333.102 269.113 333.203V343.096L272.467 341.185Z" fill="#FAFAFA"/>
<path d="M276.458 331.565C276.751 331.362 277.104 331.266 277.459 331.292C277.763 331.316 278.047 331.456 278.252 331.682C278.494 331.96 278.672 332.289 278.772 332.644C278.911 333.104 278.989 333.581 279.006 334.061C279.006 334.165 279.006 334.308 279.006 334.477V335.478C279.006 335.634 279.006 335.777 279.006 335.894C278.98 336.459 278.902 337.021 278.772 337.571C278.652 338.107 278.477 338.63 278.252 339.131C278.046 339.597 277.779 340.034 277.459 340.431C277.185 340.79 276.845 341.095 276.458 341.328C276.157 341.524 275.802 341.619 275.444 341.601C275.144 341.575 274.865 341.436 274.664 341.211C274.415 340.943 274.236 340.617 274.144 340.262C274.005 339.802 273.926 339.325 273.91 338.845C273.91 338.741 273.91 338.611 273.91 338.442V337.441C273.91 337.272 273.91 337.129 273.91 337.025C273.925 336.456 273.999 335.889 274.131 335.335C274.257 334.795 274.436 334.268 274.664 333.762C274.87 333.299 275.132 332.862 275.444 332.462C275.72 332.099 276.064 331.794 276.458 331.565ZM277.68 334.919C277.679 334.631 277.631 334.346 277.537 334.074C277.489 333.908 277.388 333.762 277.251 333.658C277.14 333.584 277.006 333.551 276.874 333.567C276.725 333.595 276.584 333.652 276.458 333.736C276.305 333.82 276.165 333.925 276.042 334.048C275.893 334.203 275.766 334.378 275.665 334.568C275.534 334.804 275.438 335.058 275.379 335.322C275.294 335.654 275.241 335.994 275.223 336.336C275.223 336.44 275.223 336.557 275.223 336.7V337.623C275.223 337.766 275.223 337.883 275.223 337.961C275.235 338.249 275.288 338.533 275.379 338.806C275.426 338.972 275.527 339.118 275.665 339.222C275.719 339.26 275.78 339.287 275.845 339.3C275.91 339.314 275.977 339.314 276.042 339.3C276.189 339.275 276.33 339.222 276.458 339.144C276.609 339.057 276.748 338.952 276.874 338.832C277.019 338.674 277.145 338.499 277.251 338.312C277.376 338.073 277.472 337.82 277.537 337.558C277.622 337.226 277.67 336.886 277.68 336.544C277.688 336.423 277.688 336.301 277.68 336.18V335.27C277.687 335.153 277.687 335.036 277.68 334.919Z" fill="#FAFAFA"/>
<path d="M282.984 339.17C283.15 339.068 283.299 338.941 283.426 338.793C283.583 338.61 283.718 338.409 283.829 338.195C283.958 337.934 284.058 337.659 284.128 337.376C284.208 337.057 284.247 336.73 284.245 336.401V335.738C284.245 335.868 284.115 336.024 284.024 336.206C283.935 336.396 283.831 336.579 283.712 336.752C283.576 336.935 283.429 337.109 283.27 337.272C283.107 337.443 282.918 337.588 282.711 337.701C282.577 337.792 282.427 337.855 282.268 337.887C282.109 337.918 281.946 337.917 281.788 337.883C281.499 337.793 281.251 337.604 281.086 337.35C280.874 337.014 280.72 336.645 280.631 336.258C280.52 335.767 280.459 335.266 280.449 334.763C280.449 334.594 280.449 334.386 280.449 334.139C280.449 333.892 280.449 333.684 280.449 333.502C280.465 332.93 280.526 332.361 280.631 331.799C280.738 331.246 280.89 330.702 281.086 330.174C281.27 329.715 281.505 329.279 281.788 328.874C282.028 328.516 282.343 328.214 282.711 327.99C282.884 327.886 283.073 327.811 283.27 327.769C283.416 327.742 283.566 327.742 283.712 327.769C283.827 327.801 283.934 327.859 284.024 327.938C284.107 328.002 284.181 328.076 284.245 328.159V327.743C284.246 327.609 284.272 327.477 284.323 327.353C284.359 327.252 284.428 327.165 284.518 327.106L285.285 326.651C285.311 326.626 285.346 326.613 285.382 326.613C285.419 326.613 285.454 326.626 285.48 326.651C285.543 326.738 285.575 326.843 285.571 326.95V335.4C285.606 336.666 285.371 337.924 284.882 339.092C284.498 340.01 283.834 340.784 282.984 341.302C282.694 341.482 282.363 341.585 282.022 341.601C281.752 341.617 281.484 341.549 281.255 341.406C281.035 341.242 280.857 341.028 280.735 340.782C280.608 340.486 280.538 340.168 280.527 339.846C280.515 339.711 280.542 339.576 280.605 339.456C280.637 339.349 280.706 339.257 280.8 339.196L281.489 338.806C281.505 338.789 281.524 338.776 281.545 338.766C281.566 338.757 281.589 338.752 281.612 338.752C281.636 338.752 281.659 338.757 281.68 338.766C281.701 338.776 281.72 338.789 281.736 338.806C281.8 338.873 281.857 338.948 281.905 339.027C281.984 339.166 282.115 339.269 282.269 339.313C282.425 339.43 282.659 339.3 282.984 339.17ZM281.762 332.865C281.762 333.212 281.762 333.55 281.762 333.879C281.725 334.398 281.872 334.914 282.178 335.335C282.294 335.435 282.441 335.49 282.594 335.49C282.747 335.49 282.894 335.435 283.01 335.335C283.387 335.09 283.682 334.736 283.855 334.321C284.092 333.779 284.224 333.196 284.245 332.605C284.245 332.41 284.245 332.176 284.245 331.903C284.245 331.63 284.245 331.396 284.245 331.227C284.271 330.761 284.133 330.301 283.855 329.927C283.74 329.821 283.589 329.762 283.432 329.762C283.276 329.762 283.125 329.821 283.01 329.927C282.64 330.171 282.351 330.52 282.178 330.928C281.911 331.539 281.77 332.198 281.762 332.865Z" fill="#FAFAFA"/>
<path d="M288.6 321.321C288.626 321.3 288.658 321.288 288.691 321.288C288.724 321.288 288.756 321.3 288.782 321.321C288.85 321.405 288.883 321.512 288.873 321.62V323.037C288.874 323.172 288.843 323.306 288.782 323.427C288.746 323.525 288.683 323.61 288.6 323.674L287.729 324.181C287.717 324.195 287.702 324.206 287.685 324.214C287.668 324.221 287.65 324.225 287.632 324.225C287.613 324.225 287.595 324.221 287.578 324.214C287.561 324.206 287.546 324.195 287.534 324.181C287.5 324.142 287.475 324.097 287.459 324.047C287.443 323.998 287.438 323.946 287.443 323.895V322.478C287.442 322.343 287.473 322.209 287.534 322.088C287.57 321.987 287.639 321.9 287.729 321.841L288.6 321.321ZM288.821 333.528C288.821 333.658 288.795 333.786 288.743 333.905C288.702 334.007 288.634 334.097 288.548 334.165L287.768 334.607C287.757 334.621 287.743 334.632 287.728 334.639C287.712 334.647 287.695 334.65 287.677 334.65C287.66 334.65 287.642 334.647 287.627 334.639C287.611 334.632 287.597 334.621 287.586 334.607C287.518 334.523 287.485 334.416 287.495 334.308V325.897C287.494 325.762 287.525 325.628 287.586 325.507C287.623 325.406 287.686 325.316 287.768 325.247L288.548 324.805C288.575 324.78 288.609 324.767 288.646 324.767C288.682 324.767 288.717 324.78 288.743 324.805C288.801 324.889 288.829 324.99 288.821 325.091V333.528Z" fill="#FAFAFA"/>
<path d="M295.659 329.563C295.658 329.697 295.632 329.829 295.581 329.953C295.545 330.054 295.476 330.141 295.386 330.2L294.606 330.655C294.582 330.679 294.549 330.692 294.515 330.692C294.481 330.692 294.448 330.679 294.424 330.655C294.356 330.571 294.323 330.464 294.333 330.356V325.78C294.373 325.24 294.275 324.698 294.047 324.207C293.865 323.882 293.579 323.83 293.176 324.064C292.774 324.334 292.476 324.733 292.331 325.195C292.114 325.808 292.008 326.455 292.019 327.106V331.695C292.018 331.829 291.992 331.961 291.941 332.085C291.909 332.192 291.84 332.284 291.746 332.345L290.979 332.787C290.967 332.801 290.952 332.812 290.935 332.82C290.918 332.827 290.9 332.831 290.882 332.831C290.863 332.831 290.845 332.827 290.828 332.82C290.811 332.812 290.796 332.801 290.784 332.787C290.724 332.704 290.696 332.603 290.706 332.501V324.09C290.704 323.956 290.731 323.823 290.784 323.7C290.816 323.593 290.885 323.501 290.979 323.44L291.746 322.998C291.758 322.984 291.773 322.973 291.79 322.965C291.807 322.958 291.825 322.954 291.844 322.954C291.862 322.954 291.88 322.958 291.897 322.965C291.914 322.973 291.929 322.984 291.941 322.998C291.999 323.086 292.027 323.191 292.019 323.297V323.7C292.19 323.304 292.399 322.925 292.643 322.569C292.857 322.241 293.147 321.969 293.488 321.776C293.784 321.56 294.152 321.467 294.515 321.516C294.659 321.552 294.794 321.618 294.91 321.71C295.027 321.802 295.122 321.918 295.191 322.049C295.38 322.401 295.503 322.784 295.555 323.18C295.625 323.697 295.659 324.218 295.659 324.74V329.563Z" fill="#FAFAFA"/>
<path d="M361.231 291.72L348.608 299L350.571 281.294C349.05 280.488 348.088 278.525 348.088 275.704C348.088 270.673 351.156 264.836 354.926 262.704C358.696 260.572 361.751 262.834 361.751 267.904C361.673 270.887 360.822 273.799 359.281 276.354L361.231 291.72Z" fill="#455A64"/>
<path d="M361.244 291.72L350.129 285.311L348.608 299.013L361.244 291.72Z" fill="#37474F"/>
<path d="M354.9 262.665C352.151 264.522 350.101 267.245 349.076 270.4L359.255 276.276C360.796 273.721 361.647 270.809 361.725 267.826C361.751 262.795 358.696 260.494 354.9 262.665Z" fill="#37474F"/>
<path d="M293.54 203.71C289.211 201.214 283.244 201.565 276.64 205.374C263.458 212.992 252.772 231.491 252.772 246.714C252.772 254.358 255.476 259.714 259.818 262.184L268.229 267.072C272.545 269.568 278.512 269.204 285.129 265.395C298.311 257.79 308.997 239.278 308.997 224.055C308.997 216.45 306.319 211.055 302.003 208.624" fill="#3451FF"/>
<path d="M285.116 210.275C271.934 217.893 261.248 236.405 261.248 251.615C261.248 266.825 271.934 273.013 285.116 265.395C298.298 257.777 308.997 239.278 308.984 224.055C308.971 208.832 298.285 202.67 285.116 210.275Z" fill="#3451FF"/>
<path d="M298.285 244.049V245.791C295.127 251.428 290.598 256.177 285.116 259.597C279.981 262.548 275.34 262.873 271.934 260.988V257.4C272.108 253.667 273.174 250.03 275.042 246.794C276.911 243.557 279.527 240.815 282.672 238.797L286.143 236.795C289.211 235.027 292.201 234.793 294.541 236.158C296.881 237.523 298.285 240.396 298.285 244.049Z" fill="#3451FF"/>
<path opacity="0.4" d="M293.54 203.71L301.99 208.624C297.674 206.115 291.707 206.466 285.09 210.275C276.458 215.267 268.892 224.926 264.706 235.274L256.243 230.373C260.442 219.973 267.943 210.366 276.627 205.374C283.257 201.578 289.224 201.214 293.54 203.71Z" fill="white"/>
<path opacity="0.2" d="M267.93 266.877L259.831 262.184C255.489 259.714 252.785 254.384 252.785 246.714L261.248 251.628C261.3 259.038 263.796 264.316 267.93 266.877Z" fill="black"/>
<path opacity="0.1" d="M256.269 230.373L264.732 235.274C262.563 240.455 261.399 246 261.3 251.615L252.837 246.701C252.941 241.091 254.106 235.551 256.269 230.373Z" fill="black"/>
<path d="M282.1 235.976C281.293 235.985 280.499 235.778 279.799 235.378C278.955 234.815 278.279 234.035 277.842 233.12C277.405 232.204 277.223 231.188 277.316 230.178C277.426 227.809 278.102 225.502 279.287 223.448C280.473 221.394 282.132 219.655 284.128 218.374C284.93 217.734 285.906 217.351 286.929 217.275C287.951 217.198 288.973 217.433 289.861 217.947C290.749 218.461 291.461 219.231 291.904 220.156C292.347 221.081 292.5 222.118 292.344 223.132C292.232 225.5 291.555 227.807 290.37 229.86C289.185 231.914 287.526 233.654 285.532 234.936C284.5 235.58 283.316 235.939 282.1 235.976Z" fill="white"/>
<path d="M294.541 236.145C292.201 234.78 289.211 235.014 286.143 236.782L282.672 238.784C279.525 240.803 276.908 243.547 275.04 246.786C273.171 250.025 272.106 253.665 271.934 257.4V261.001C275.34 262.886 279.981 262.561 285.116 259.61C290.598 256.19 295.127 251.441 298.285 245.804V244.062C298.285 240.396 296.933 237.523 294.541 236.145Z" fill="white"/>
<path d="M561.795 461.045C561.795 461.045 563.524 445.861 571.077 434.07C578.63 422.279 589.004 414.934 598.689 414.167C608.374 413.4 616.2 422.318 605.839 428.467C595.478 434.616 577.07 440.83 568.594 463.71L561.795 461.045Z" fill="#3451FF"/>
<path opacity="0.1" d="M561.795 461.045C561.795 461.045 563.524 445.861 571.077 434.07C578.63 422.279 589.004 414.934 598.689 414.167C608.374 413.4 616.2 422.318 605.839 428.467C595.478 434.616 577.07 440.83 568.594 463.71L561.795 461.045Z" fill="black"/>
<path d="M564.642 457.093H564.538C564.411 457.041 564.309 456.941 564.255 456.814C564.202 456.687 564.201 456.545 564.252 456.417C574.47 431.262 593.918 420.745 602.784 418.717C602.851 418.702 602.919 418.7 602.987 418.711C603.054 418.722 603.119 418.747 603.177 418.783C603.235 418.819 603.285 418.866 603.325 418.922C603.364 418.977 603.393 419.04 603.408 419.107C603.423 419.174 603.425 419.243 603.414 419.31C603.403 419.377 603.378 419.442 603.342 419.5C603.306 419.558 603.259 419.608 603.203 419.648C603.147 419.687 603.085 419.716 603.018 419.731C594.334 421.733 575.263 432.055 565.214 456.82C565.164 456.924 565.08 457.007 564.976 457.057C564.872 457.107 564.754 457.119 564.642 457.093Z" fill="white"/>
<path d="M616.356 457.392C615.485 459.368 613.327 460.408 611.325 461.214C609.323 462.02 607.139 462.891 606.047 464.763C603.863 468.533 607.451 473.863 605.111 477.516C604.56 478.251 603.866 478.868 603.071 479.328C602.275 479.788 601.395 480.083 600.483 480.194C598.988 480.467 597.467 480.467 595.959 480.597C595.237 480.587 594.516 480.531 593.801 480.428C591.7 479.959 589.504 480.192 587.548 481.091C584.545 482.781 583.648 486.564 581.802 489.489C580.674 491.211 579.188 492.67 577.444 493.764C575.701 494.859 573.742 495.565 571.701 495.833C570.401 496.002 567.801 496.249 566.501 495.482C566.399 495.432 566.303 495.371 566.215 495.3C566.02 495.092 565.786 494.819 565.682 494.676C565.675 494.646 565.675 494.615 565.682 494.585C565.149 492.622 566.02 490.594 566.059 488.566V488.202C565.968 485.849 565.903 483.509 565.851 481.169C565.738 476.836 565.695 472.502 565.721 468.169C565.721 465.361 565.409 462.293 566.605 459.654C567.905 456.742 571.181 456.677 572.416 453.83C572.91 452.686 573.17 451.477 573.651 450.32C574.394 448.638 575.585 447.192 577.093 446.14C578.602 445.088 580.37 444.47 582.205 444.353C587.912 444.067 593.021 448.682 598.728 448.253C600.197 448.136 601.64 447.681 603.096 447.421C607.711 446.55 613.054 447.863 615.654 451.776C616.225 452.582 616.587 453.516 616.71 454.496C616.832 455.476 616.711 456.471 616.356 457.392Z" fill="#3451FF"/>
<path d="M565.11 485.576C564.987 485.54 564.883 485.457 564.82 485.345C564.757 485.234 564.74 485.102 564.772 484.978C572.65 455.416 603.772 451.178 611.091 451.672C611.155 451.675 611.218 451.691 611.276 451.72C611.334 451.748 611.386 451.787 611.428 451.836C611.471 451.884 611.503 451.941 611.523 452.002C611.544 452.063 611.551 452.128 611.546 452.192C611.533 452.318 611.471 452.435 611.374 452.517C611.278 452.6 611.153 452.641 611.026 452.634C603.889 452.127 573.417 456.3 565.708 485.238C565.672 485.361 565.589 485.465 565.477 485.528C565.366 485.591 565.234 485.608 565.11 485.576Z" fill="white"/>
<path d="M599.729 470.6C599.63 470.586 599.539 470.541 599.469 470.47C596.592 467.976 593.199 466.149 589.534 465.117C585.869 464.086 582.021 463.876 578.266 464.503C578.139 464.515 578.013 464.479 577.912 464.401C577.811 464.324 577.742 464.212 577.72 464.087C577.701 463.96 577.733 463.83 577.808 463.726C577.883 463.621 577.996 463.55 578.123 463.528C582.04 462.876 586.052 463.099 589.873 464.18C593.694 465.261 597.228 467.174 600.223 469.781C600.269 469.826 600.305 469.879 600.33 469.939C600.355 469.998 600.368 470.061 600.368 470.126C600.368 470.19 600.355 470.253 600.33 470.312C600.305 470.372 600.269 470.425 600.223 470.47C600.164 470.54 600.085 470.59 599.997 470.614C599.908 470.637 599.815 470.632 599.729 470.6Z" fill="white"/>
<path d="M490.256 104L494.39 105.586V96.486C494.39 89.258 500.149 87.529 506.402 91.143C512.668 94.757 517.738 103.532 517.738 110.76V112.06C518.609 111.794 519.53 111.728 520.43 111.868C521.331 112.007 522.188 112.348 522.938 112.866C525.312 114.414 527.288 116.501 528.704 118.956C530.121 121.412 530.938 124.166 531.089 126.997V127.595L536.861 130.923C538.423 131.942 539.722 133.315 540.655 134.93C541.588 136.544 542.127 138.356 542.23 140.218C542.23 143.65 539.825 145.041 536.861 143.325L490.256 116.402C488.693 115.385 487.393 114.013 486.463 112.397C485.532 110.782 484.996 108.969 484.9 107.107C484.9 103.688 487.279 102.297 490.256 104Z" fill="#E6E6E6"/>
<path d="M545.623 96.798L553.124 101.127C553.083 100.799 553.061 100.469 553.059 100.139V97.968C553.059 94.068 555.763 92.534 559.117 94.471C560.558 95.3534 561.791 96.5376 562.731 97.942C563.277 93.08 567.099 91.273 571.727 93.938C574.372 95.6588 576.574 97.9786 578.155 100.709C579.736 103.44 580.651 106.505 580.827 109.655V112.905C580.86 114.204 580.598 115.493 580.06 116.675L586.3 120.263C587.272 120.908 588.08 121.772 588.658 122.786C589.236 123.799 589.568 124.935 589.628 126.1C589.628 128.245 588.12 129.116 586.261 128.05L545.623 104.65C544.64 104.01 543.823 103.146 543.237 102.129C542.652 101.112 542.316 99.9716 542.256 98.8C542.256 96.603 543.764 95.732 545.623 96.798Z" fill="#E6E6E6"/>
<path d="M516.581 294.099C511.121 303.329 505.869 311.35 502.177 315.198C495.17 318.448 478.712 323.466 472.277 324.298C471.147 324.442 470.002 324.174 469.053 323.544C466.518 321.88 464.555 321.607 461.89 320.684C459.797 319.969 458.913 318.968 458.523 319.384C458.12 319.856 457.918 320.467 457.959 321.086C458 321.706 458.282 322.284 458.744 322.699C459.744 323.649 460.852 324.478 462.046 325.169C459.192 325.877 456.214 325.93 453.336 325.325C447.759 323.856 445.133 326.534 448.903 332.592C450.203 334.75 455.559 338.221 466.323 337.285C470.163 337.078 473.987 336.644 477.776 335.985C488.098 333.775 499.577 331.643 506.636 329.485C509.262 328.453 511.612 326.824 513.5 324.727C525.369 311.194 529.308 301.548 534.508 292.786L534.066 278.486C525.642 278.2 521.144 286.377 516.581 294.099Z" fill="#FFA8A7"/>
<path d="M535.509 278.2C533.066 277.857 530.576 278.187 528.308 279.157C526.04 280.126 524.079 281.697 522.639 283.699C516.867 291.096 506.649 308.854 506.649 308.854C506.649 308.854 509.99 317.759 519.012 319.254L533.507 299.676C533.507 299.676 540.371 286.078 535.509 278.2Z" fill="#455A64"/>
<path d="M566.852 477.802H557.401V494.65H566.852V477.802Z" fill="#FFA8A7"/>
<path d="M534.092 476.905L524.654 477.243L524.173 459.407L534.092 459.069V476.905Z" fill="#FFA8A7"/>
<path d="M568.178 331.955C568.178 341.341 566.8 416.962 566.8 416.962C567.008 419.666 569.4 424.658 568.919 435.045C568.204 449.15 567.255 486.226 567.255 486.226C565.633 487.056 563.843 487.506 562.021 487.542C560.198 487.578 558.392 487.199 556.738 486.434C556.738 486.434 549.068 434.434 547.378 420.511C545.896 408.304 542.1 367.9 542.1 367.9L536.991 415.662C538.074 420.787 538.468 426.033 538.161 431.262C537.719 437.762 534.677 471.406 534.677 471.406C533.044 472.369 531.214 472.948 529.324 473.099C527.434 473.25 525.535 472.969 523.77 472.277C523.77 472.277 518.388 421.577 518.284 415.623C518.154 408.863 521.43 331.877 521.43 331.877L568.178 331.955Z" fill="#37474F"/>
<path d="M557.401 489.788V488.384C556.491 488.787 554.398 497.133 550.641 500.695C547.664 503.529 543.608 506.792 542.568 509.951C541.528 513.11 548.223 515.047 551.018 514.54C554.242 513.942 559.858 511.563 561.262 509.34C562.666 507.117 563.329 503.893 564.473 502.281C565.617 500.669 568.256 498.875 568.867 497.003C569.058 495.251 568.876 493.479 568.334 491.803C567.892 490.061 567.424 488.15 566.852 488.319V489.385C565.519 490.479 563.844 491.068 562.12 491.049C560.742 491.166 557.388 490.88 557.401 489.788Z" fill="#263238"/>
<path d="M524.55 474.201C524.056 474.201 523.653 474.942 522.574 476.164C520.97 477.852 519.093 479.258 517.023 480.324C513.487 482.17 506.623 485.004 503.49 486.473C501.54 487.383 501.631 489.827 503.646 491.218C505.661 492.609 510.51 493.61 516.334 492.258C519.506 491.517 523.64 488.462 526.266 488.631C528.892 488.8 533.767 488.748 535.704 487.331C537.641 485.914 536.861 482.976 536.315 480.441C535.717 477.659 535.015 473.33 534.092 473.525V474.5C532.961 476.294 527.098 477.022 524.602 475.709L524.55 474.201Z" fill="#263238"/>
<path d="M542.1 367.9C537.184 366.291 532.689 363.604 528.944 360.035C528.944 360.035 531.544 364.988 539.032 369.603L537.42 412.256L542.1 367.9Z" fill="#263238"/>
<path d="M562.9 279.578C562.9 279.578 570.7 281.372 570.141 295.464L568.516 317.889V351.559C561.574 359.437 530.816 358.865 520.221 350.935C520.221 350.935 521.417 311.09 522.132 295.75C522.639 284.856 525.148 279.37 535.86 278.174L549.029 278.746L562.9 279.578Z" fill="#3451FF"/>
<path d="M552.968 250.302C553.013 252.189 552.684 254.065 552 255.824C551.316 257.583 550.291 259.189 548.983 260.55C547.676 261.911 546.112 262.999 544.381 263.753C542.651 264.506 540.789 264.91 538.902 264.94C531.102 264.94 526.526 258.206 524.836 250.302C521.716 235.833 531.128 235.651 538.902 235.651C542.71 235.73 546.331 237.317 548.968 240.064C551.606 242.812 553.045 246.494 552.968 250.302Z" fill="#263238"/>
<path d="M560.144 256.217C560.144 256.217 557.986 266.773 557.115 268.515C556.567 269.563 555.636 270.36 554.515 270.738L554.671 263.315L560.144 256.217Z" fill="#263238"/>
<path d="M557.427 241.098C557.427 241.098 558.974 240.708 560.625 243.282C562.029 245.479 562.354 250.419 560.144 256.282L556.075 256.776L557.427 241.098Z" fill="#263238"/>
<path d="M558.922 243.243L563.914 243.334C563.948 243.011 563.915 242.685 563.817 242.376C563.719 242.067 563.559 241.781 563.345 241.537C563.131 241.292 562.87 241.095 562.576 240.957C562.282 240.819 561.963 240.743 561.639 240.734C560.957 240.744 560.302 241.005 559.8 241.468C559.299 241.931 558.986 242.563 558.922 243.243Z" fill="#263238"/>
<path d="M559.533 242.06L563.225 238.511C563.012 238.26 562.75 238.056 562.454 237.912C562.159 237.768 561.837 237.686 561.508 237.673C561.179 237.659 560.852 237.714 560.545 237.834C560.239 237.953 559.961 238.135 559.728 238.368C559.238 238.847 558.947 239.492 558.911 240.176C558.874 240.86 559.097 241.532 559.533 242.06Z" fill="#263238"/>
<path d="M554.853 256.711C555.672 257.218 556.829 255.593 557.843 254.488C558.857 253.383 562.003 252.369 563.641 255.957C565.279 259.545 562.484 263.094 560.144 264.264C555.945 266.344 554.619 263.315 554.619 263.315L554.268 280.033C548.366 289.133 534.976 288.847 539.799 279.591V274.508C537.815 274.838 535.8 274.943 533.793 274.82C530.517 274.3 528.463 271.609 527.462 267.917C525.876 261.989 525.265 257.205 526.617 245.544C528.099 232.778 542.373 232.635 550.017 237.744C557.661 242.853 554.853 256.711 554.853 256.711Z" fill="#FFA8A7"/>
<path d="M537.069 243.555C540.475 243.217 543.842 242.515 547.261 242.255C547.998 242.166 548.745 242.201 549.471 242.359C552.071 243.074 551.759 246.116 552.175 248.235C552.89 251.901 553.475 258.102 554.853 258.128C555.269 258.128 556.829 255.437 557.843 254.475C558.4 253.646 558.716 252.678 558.753 251.68C559.013 250.172 559.143 248.625 559.26 247.091C559.364 245.791 559.494 244.491 559.494 243.191C559.553 241.722 559.436 240.251 559.143 238.81C558.817 237.584 558.192 236.458 557.323 235.534L557.063 235.248C555.349 233.456 553.27 232.055 550.966 231.14C547.651 229.898 544.175 229.141 540.644 228.891C537.118 228.641 533.608 228.207 530.127 227.591C529.928 227.533 529.716 227.533 529.516 227.591C529.375 227.669 529.256 227.782 529.169 227.918C529.083 228.054 529.032 228.21 529.022 228.371C528.879 229.179 528.969 230.011 529.279 230.77C529.59 231.529 530.109 232.185 530.777 232.661C528.424 232.843 525.72 231.621 523.458 230.997C523.275 230.919 523.078 230.879 522.88 230.879C522.681 230.879 522.484 230.919 522.301 230.997C522.074 231.156 521.912 231.391 521.846 231.66C521.681 232.271 521.659 232.911 521.781 233.532C521.988 235.413 522.688 237.207 523.809 238.732C525.561 241.013 528.036 242.631 530.829 243.321C532.885 243.717 534.989 243.796 537.069 243.555Z" fill="#263238"/>
<path d="M539.812 274.508C539.812 274.508 547.118 272.974 549.666 271.557C551.184 270.727 552.416 269.458 553.202 267.917C552.818 269.465 552.134 270.923 551.187 272.207C549.328 274.703 539.812 276.523 539.812 276.523V274.508Z" fill="#F28F8F"/>
<path d="M541.567 254.8C541.553 255.201 541.698 255.592 541.971 255.887C542.244 256.181 542.622 256.356 543.023 256.373C543.342 256.399 543.661 256.329 543.938 256.17C544.216 256.012 544.439 255.774 544.579 255.487C544.719 255.199 544.769 254.876 544.722 254.56C544.675 254.244 544.534 253.949 544.317 253.715C544.1 253.48 543.817 253.317 543.506 253.246C543.194 253.175 542.868 253.2 542.571 253.317C542.274 253.434 542.019 253.639 541.84 253.903C541.661 254.168 541.566 254.48 541.567 254.8Z" fill="#263238"/>
<path d="M543.907 248.495L547.04 250.302C547.268 249.857 547.32 249.341 547.185 248.86C547.05 248.378 546.738 247.964 546.312 247.702C546.104 247.585 545.875 247.513 545.638 247.49C545.4 247.467 545.161 247.494 544.935 247.569C544.709 247.643 544.5 247.764 544.324 247.924C544.147 248.083 544.005 248.278 543.907 248.495Z" fill="#263238"/>
<path d="M540.462 265.343L537.121 266.643C537.188 266.872 537.302 267.085 537.455 267.268C537.608 267.452 537.797 267.602 538.01 267.709C538.223 267.816 538.457 267.879 538.695 267.892C538.933 267.905 539.172 267.87 539.396 267.787C539.851 267.591 540.214 267.23 540.412 266.776C540.61 266.322 540.628 265.81 540.462 265.343Z" fill="#F28F8F"/>
<path d="M528.125 249.834L530.985 247.546C530.857 247.346 530.688 247.176 530.49 247.046C530.291 246.915 530.068 246.829 529.833 246.791C529.599 246.753 529.36 246.764 529.13 246.825C528.901 246.886 528.687 246.994 528.502 247.143C528.12 247.467 527.87 247.92 527.801 248.417C527.731 248.913 527.847 249.417 528.125 249.834Z" fill="#263238"/>
<path d="M529.386 254.371C529.409 254.655 529.514 254.927 529.688 255.153C529.863 255.379 530.1 255.548 530.369 255.642C530.639 255.735 530.93 255.748 531.207 255.679C531.484 255.61 531.734 255.462 531.928 255.252C532.122 255.043 532.251 254.782 532.299 254.5C532.346 254.219 532.311 253.93 532.197 253.668C532.084 253.406 531.896 253.184 531.658 253.027C531.419 252.87 531.14 252.786 530.855 252.785C530.654 252.792 530.457 252.838 530.274 252.922C530.091 253.005 529.926 253.124 529.79 253.272C529.653 253.419 529.547 253.592 529.478 253.781C529.409 253.97 529.377 254.17 529.386 254.371Z" fill="#263238"/>
<path d="M537.225 253.149L537.056 262.392L531.804 261.196L537.225 253.149Z" fill="#F28F8F"/>
<path d="M412.503 330.564L420.654 325.858L423.878 321.945L415.74 326.651L412.503 330.564Z" fill="#3451FF"/>
<path opacity="0.4" d="M412.503 330.564L420.654 325.858L423.878 321.945L415.74 326.651L412.503 330.564Z" fill="black"/>
<path d="M434.668 343.356L442.819 338.65L449.618 332.631L441.48 337.324L434.668 343.356Z" fill="#3451FF"/>
<path opacity="0.4" d="M434.668 343.356L442.819 338.65L449.618 332.631L441.48 337.324L434.668 343.356Z" fill="black"/>
<path d="M503.906 359.593C505.833 362.176 507 365.247 507.273 368.459C505.354 365.871 504.189 362.802 503.906 359.593ZM522.847 359.84C520.104 341.185 510.081 322.738 498.147 315.835C492.414 312.52 487.11 312.403 482.859 314.886L475.189 319.306L474.76 319.566C474.419 319.754 474.089 319.962 473.772 320.19C473.142 320.624 472.55 321.111 472.004 321.646L471.744 321.893C471.51 322.127 471.263 322.4 471.042 322.66C470.821 322.92 470.483 323.323 470.223 323.674C469.671 324.4 469.172 325.165 468.728 325.962C468.494 326.365 468.273 326.794 468.065 327.262L401.076 288.6L392.938 293.293V298.493L393.627 298.883L394.277 299.26V300.3L392.977 301.067V304.083L402.818 324.883L412.542 330.512L415.779 326.612L424.359 331.747L429.286 340.184L434.72 343.317L441.519 337.285L449.865 342.108L452.673 353.691L466.7 361.803C467.393 364.751 468.262 367.655 469.3 370.5C469.391 370.786 469.508 371.085 469.625 371.41C474.279 383.63 481.676 394.095 490.022 398.918C491.022 399.511 492.07 400.02 493.155 400.439C493.729 400.667 494.315 400.862 494.91 401.024C495.43 401.163 495.95 401.28 496.47 401.375C498.112 401.674 499.794 401.674 501.436 401.375L502.112 401.206C502.435 401.141 502.753 401.05 503.061 400.933L503.789 400.647C504.047 400.554 504.295 400.436 504.53 400.296C504.77 400.192 505.005 400.075 505.232 399.945L505.57 399.737C505.631 399.717 505.689 399.686 505.739 399.646C507.598 398.58 512.174 395.928 513.422 395.226C519.61 391.638 523.614 382.564 523.614 369.733C523.604 366.421 523.347 363.114 522.847 359.84Z" fill="#3451FF"/>
<path d="M501.527 375.336C498.303 373.477 495.703 367.965 495.703 363.025C495.703 358.085 498.303 355.576 501.527 357.422C504.751 359.268 507.338 364.793 507.338 369.746C507.338 374.699 504.738 377.195 501.527 375.336ZM514.696 364.533C511.966 345.891 501.943 327.431 489.996 320.541C484.458 317.343 479.336 317.109 475.176 319.306L474.747 319.566C474.406 319.754 474.076 319.962 473.759 320.19C473.129 320.624 472.537 321.111 471.991 321.646L471.731 321.893C471.497 322.127 471.25 322.4 471.029 322.66C470.808 322.92 470.47 323.323 470.21 323.674C469.658 324.4 469.159 325.165 468.715 325.962C468.481 326.365 468.26 326.794 468.052 327.262C466.84 329.775 465.966 332.437 465.452 335.179L392.925 293.293V298.493L393.614 298.883L394.264 299.26V300.3L392.964 301.067V304.083L402.805 324.883L412.529 330.512L415.766 326.612L424.346 331.747L429.273 340.184L434.707 343.317L441.506 337.285L449.852 342.108L452.66 353.691L466.7 361.803C467.393 364.751 468.262 367.655 469.3 370.5C469.391 370.786 469.508 371.085 469.625 371.41C474.279 383.63 481.676 394.095 490.022 398.918C491.022 399.511 492.07 400.02 493.155 400.439C493.729 400.667 494.314 400.862 494.91 401.024C495.43 401.163 495.95 401.28 496.47 401.375C498.112 401.674 499.794 401.674 501.436 401.375L502.112 401.206C502.435 401.141 502.753 401.05 503.061 400.933L503.789 400.647C504.047 400.554 504.295 400.436 504.53 400.296C504.77 400.192 505.005 400.075 505.232 399.945L505.57 399.737C505.631 399.717 505.689 399.686 505.739 399.646C511.667 395.902 515.476 386.958 515.476 374.439C515.454 371.123 515.194 367.812 514.696 364.533Z" fill="#3451FF"/>
<path opacity="0.4" d="M507.338 369.733C507.338 374.686 504.738 377.195 501.527 375.336C498.316 373.477 495.703 367.978 495.703 363.025C495.703 358.072 498.303 355.563 501.527 357.422C502.455 357.987 503.264 358.729 503.906 359.606C504.185 362.816 505.351 365.886 507.273 368.472C507.321 368.891 507.342 369.312 507.338 369.733Z" fill="black"/>
<path opacity="0.4" d="M523.588 369.72C523.588 382.551 519.584 391.625 513.396 395.213C512.096 395.915 507.572 398.567 505.713 399.633C511.641 395.889 515.45 386.945 515.45 374.426C515.436 371.115 515.184 367.808 514.696 364.533C511.966 345.891 501.943 327.431 489.996 320.541C484.458 317.343 479.336 317.109 475.176 319.306L482.846 314.886C487.097 312.403 492.401 312.52 498.134 315.835C510.081 322.738 520.104 341.185 522.834 359.84C523.329 363.11 523.581 366.413 523.588 369.72Z" fill="white"/>
<path d="M515.45 374.4C515.45 386.919 511.641 395.863 505.713 399.607C507.572 398.541 512.148 395.889 513.396 395.187C519.584 391.599 523.588 382.525 523.588 369.694C523.588 369.226 523.588 368.745 523.588 368.264L515.45 372.97C515.437 373.477 515.45 373.945 515.45 374.4Z" fill="#3451FF"/>
<path opacity="0.1" d="M515.45 374.4C515.45 386.919 511.641 395.863 505.713 399.607C507.572 398.541 512.148 395.889 513.396 395.187C519.584 391.599 523.588 382.525 523.588 369.694C523.588 369.226 523.588 368.745 523.588 368.264L515.45 372.97C515.437 373.477 515.45 373.945 515.45 374.4Z" fill="black"/>
<path opacity="0.15" d="M465.764 340.496V343.135L392.938 301.093L394.277 300.313V299.221L465.764 340.496Z" fill="black"/>
<path opacity="0.15" d="M465.764 341.588V343.135L392.938 301.093L394.277 300.313V300.3L465.764 341.588Z" fill="black"/>
<path opacity="0.15" d="M497.432 395.2C494.672 395.128 491.98 394.325 489.632 392.873C477.763 386.022 468.104 365.638 468.104 347.438C468.104 336.817 471.315 328.887 476.918 325.65C480.818 323.388 485.433 323.674 490.282 326.469C502.138 333.32 511.797 353.769 511.797 371.969C511.797 382.577 508.586 390.52 502.983 393.744C501.293 394.709 499.378 395.211 497.432 395.2ZM482.547 325.455C480.815 325.445 479.11 325.894 477.607 326.755C472.498 329.706 469.443 337.441 469.443 347.425C469.443 365.209 478.803 385.125 490.321 391.729C494.728 394.329 498.901 394.563 502.372 392.561C507.481 389.61 510.536 381.888 510.536 371.904C510.536 354.107 501.176 334.204 489.671 327.587C487.521 326.279 485.063 325.561 482.547 325.507V325.455Z" fill="black"/>
<path opacity="0.4" d="M468 327.236C466.788 329.749 465.914 332.411 465.4 335.153L392.873 293.267L401.011 288.574L468 327.236Z" fill="white"/>
<path d="M562.263 331.305C566.059 324.116 570.401 307.97 572.559 299.819C575.627 288.249 570.661 280.969 565.019 280.67C561.496 281.216 549.887 323.427 549.887 323.427C548.587 324.454 530.946 333.411 525.278 335.66C524.264 336.043 523.146 336.043 522.132 335.66C519.415 334.672 517.556 334.854 514.891 334.594C512.798 334.386 511.745 333.645 511.472 334.087C511.224 334.636 511.192 335.257 511.383 335.829C511.573 336.4 511.972 336.878 512.499 337.168C513.647 337.836 514.868 338.369 516.139 338.754C513.861 339.445 511.486 339.766 509.106 339.703C503.646 339.586 501.683 341.952 505.921 347.503C508.521 350.961 512.824 352.053 522.431 348.738C525.187 347.776 528.931 345.917 532.428 344.656C539.63 342.056 541.528 341.744 547.014 339.885C555.009 337.181 560.573 334.503 562.263 331.305Z" fill="#FFA8A7"/>
<path d="M562.9 279.578C566.215 280.033 569.4 280.774 571.363 283.478C573.326 286.182 574.899 289.978 572.975 300.313C571.502 307.581 569.53 314.74 567.073 321.737C567.073 321.737 559.351 325.039 551.148 316.667L556.79 294.853C556.79 294.853 557.7 280.67 562.9 279.578Z" fill="#455A64"/>
</svg>
