<svg width="44" height="44" viewBox="0 0 44 44" fill="none" xmlns="http://www.w3.org/2000/svg">
<mask id="mask0_399_234" style="mask-type:alpha" maskUnits="userSpaceOnUse" x="8" y="7" width="35" height="36">
<path d="M8.09595 7.97867H42.0786V42.0159H8.09595V7.97867Z" fill="white"/>
</mask>
<g mask="url(#mask0_399_234)">
<path d="M37.1075 13.0611C33.901 9.85739 29.6376 8.09326 25.1029 8.09326C23.7379 8.09326 22.3978 8.2546 21.1034 8.56535C20.9911 8.92651 20.8426 9.2808 20.657 9.6218C22.0696 9.21526 23.561 8.99664 25.1029 8.99664C33.9657 8.99664 41.1757 16.1998 41.1757 25.0543C41.1757 33.9084 33.9657 41.1116 25.1029 41.1116C16.2401 41.1116 9.03002 33.9084 9.03002 25.0543C9.03002 23.5235 9.2459 22.0422 9.64786 20.6392C9.31007 20.8253 8.95486 20.9775 8.58957 21.0943C8.28432 22.3763 8.12573 23.7032 8.12573 25.0543C8.12573 29.5845 9.89169 33.8438 13.0982 37.0471C16.3047 40.2504 20.5681 42.015 25.1029 42.015C29.6376 42.015 33.901 40.2504 37.1075 37.0471C40.314 33.8438 42.08 29.5845 42.08 25.0543C42.08 20.5237 40.314 16.2644 37.1075 13.0611Z" fill="white"/>
</g>
<path d="M9.7395 17.8163L10.2533 18.4067C10.3019 18.4631 10.3491 18.5213 10.3963 18.579C12.0046 14.9472 14.9223 12.018 18.5487 10.3936C18.4983 10.3524 18.4474 10.3116 18.3988 10.2694L17.7883 9.73914C16.0695 10.56 14.4851 11.6756 13.0982 13.0611C11.6929 14.4655 10.564 16.0724 9.7395 17.8163Z" fill="white"/>
<path d="M12.7826 3.59975C10.3071 2.20596 7.02499 2.63496 4.81857 4.83954C2.6117 7.04367 2.1827 10.323 3.5774 12.7962C1.95215 14.6864 1.96682 17.4657 3.67228 19.1693C5.32915 20.8248 8.0017 20.8858 9.88774 19.3994C9.79607 19.2715 9.69065 19.1368 9.57103 18.9993L9.39595 18.7981C7.81699 20.0328 5.59178 19.9888 4.22182 18.6207C3.5444 17.9438 3.1649 17.0285 3.15299 16.043C3.14107 15.0498 3.50132 14.0763 4.16728 13.3022L4.52249 12.8888L4.25482 12.4144C2.99853 10.1878 3.4564 7.2985 5.36811 5.38862C7.27982 3.47829 10.1719 3.02133 12.4008 4.27625L12.8756 4.54392L13.289 4.18871C14.0641 3.52367 15.0385 3.16387 16.0331 3.17579C17.0189 3.18771 17.9352 3.56675 18.6126 4.24371C19.9825 5.61229 20.0265 7.83521 18.7904 9.41279L18.9916 9.58742C19.1296 9.70704 19.2643 9.812 19.3922 9.90412C20.8804 8.01992 20.819 5.35012 19.1621 3.69462C17.4567 1.99054 14.6746 1.97587 12.7826 3.59975Z" fill="white"/>
<path d="M22.0353 11.71V18.9406C22.0353 19.0204 21.9703 19.0855 21.8905 19.0855C21.8108 19.0855 21.7461 19.0204 21.7461 18.9406V11.71H20.2515V18.9406C20.2515 19.0204 20.1864 19.0855 20.1067 19.0855C20.0274 19.0855 19.9623 19.0204 19.9623 18.9406V11.71H18.4677V18.9406C18.4677 19.0204 18.403 19.0855 18.3233 19.0855C18.2435 19.0855 18.1785 19.0204 18.1785 18.9406V11.71H16.6838V20.0796C16.6838 20.9509 17.0129 21.7809 17.6092 22.4166C18.5965 23.4671 19.108 24.954 19.0135 26.4944L18.5305 34.348C18.7198 34.4818 18.9132 34.6097 19.1107 34.7325L19.6149 26.5315C19.7198 24.8256 19.1492 23.1756 18.0488 22.0041C17.5574 21.4807 17.2865 20.7973 17.2865 20.0796V12.3118H17.5758V18.9406C17.5758 19.3522 17.9113 19.6873 18.3233 19.6873C18.7353 19.6873 19.0704 19.3522 19.0704 18.9406V12.3118H19.3596V18.9406C19.3596 19.3522 19.6946 19.6873 20.1067 19.6873C20.5192 19.6873 20.8542 19.3522 20.8542 18.9406V12.3118H21.1434V18.9406C21.1434 19.3522 21.4785 19.6873 21.8905 19.6873C22.3025 19.6873 22.638 19.3522 22.638 18.9406V12.3118H22.9273V20.0796C22.9273 20.7973 22.6564 21.4807 22.165 22.0041C21.065 23.1756 20.494 24.8256 20.5989 26.5315L21.165 35.7353C21.3675 35.811 21.5733 35.8802 21.7814 35.9439L21.2007 26.4944C21.1058 24.954 21.6173 23.4671 22.6046 22.4166C23.2013 21.7809 23.5295 20.9509 23.5295 20.0796V11.71H22.0353Z" fill="white"/>
<path d="M33.5221 17.7196C33.5221 16.1375 33.1201 14.6456 32.39 13.519C31.6337 12.3525 30.6149 11.71 29.5208 11.71C28.4272 11.71 27.4084 12.3525 26.6521 13.5195C25.922 14.6456 25.52 16.1375 25.52 17.7196C25.52 19.6419 26.1049 21.3996 27.1246 22.5418C28.0436 23.5716 28.5203 24.9773 28.4332 26.3991L27.8364 36.1057C28.0436 36.0543 28.2485 35.997 28.4511 35.9352L29.035 26.4358C29.1321 24.8554 28.5996 23.2898 27.5738 22.1407C26.6654 21.1223 26.1227 19.4695 26.1227 17.7196C26.1227 14.7382 27.6471 12.3118 29.5208 12.3118C31.3949 12.3118 32.9194 14.7382 32.9194 17.7196C32.9194 19.4695 32.3767 21.1223 31.4678 22.1407C30.4425 23.2898 29.9099 24.8554 30.0071 26.4358L30.5369 35.0565C30.7349 34.9488 30.9293 34.8356 31.1199 34.7165L30.6084 26.3991C30.5214 24.9773 30.998 23.5712 31.9179 22.5413C32.9372 21.3991 33.5221 19.6414 33.5221 17.7196Z" fill="white"/>
<path d="M34.1174 18.1C34.1055 18.4103 34.0789 18.7156 34.0386 19.0158C35.2096 20.7396 35.8943 22.8186 35.8943 25.0543C35.8943 29.0377 33.7209 32.5233 30.4961 34.3897L30.5373 35.0575C34.0848 33.1265 36.4971 29.3663 36.4971 25.0543C36.4971 22.4372 35.6083 20.0246 34.1174 18.1Z" fill="white"/>
<path d="M25.1028 35.8353C23.6985 35.8353 22.356 35.5658 21.124 35.0758L21.1648 35.7363C22.3927 36.1896 23.7191 36.4375 25.1028 36.4375C26.2674 36.4375 27.3917 36.2615 28.4505 35.9356L28.4904 35.2908C27.4243 35.6437 26.2858 35.8353 25.1028 35.8353Z" fill="white"/>
<path d="M19.1528 34.0441C16.2378 32.1118 14.3114 28.8035 14.3114 25.0543C14.3114 22.8741 14.9632 20.8432 16.0811 19.1446V18.1097C14.5947 20.0328 13.7087 22.4418 13.7087 25.0543C13.7087 29.1358 15.8707 32.7223 19.1107 34.7316L19.1528 34.0441Z" fill="white"/>
<path d="M12.4593 12.4222C14.3564 10.5265 16.6054 9.10938 19.0589 8.23121C19.5667 6.9488 19.3412 5.47846 18.3585 4.49717C17.748 3.88667 16.9203 3.54521 16.0288 3.53375C15.1213 3.52321 14.2317 3.8523 13.5227 4.4605L12.9186 4.97934L12.2247 4.58838C10.1351 3.41184 7.41995 3.84496 5.62145 5.64209C3.82295 7.43875 3.38937 10.1516 4.56682 12.2389L4.95824 12.9319L4.43941 13.5355C3.83028 14.2436 3.50074 15.1328 3.51174 16.0389C3.52228 16.9299 3.86466 17.7568 4.47562 18.3673C5.46791 19.3582 6.95887 19.5777 8.25228 19.0506C9.12999 16.5862 10.5527 14.327 12.4593 12.4222Z" fill="white"/>
</svg>
