<svg xmlns="http://www.w3.org/2000/svg" xmlns:xlink="http://www.w3.org/1999/xlink" width="1920" zoomAndPan="magnify" viewBox="0 0 1440 809.999993" height="1080" preserveAspectRatio="xMidYMid meet" version="1.0"><defs><clipPath id="ac38151771"><path d="M 25 802 L 1400 802 L 1400 809.667969 L 25 809.667969 Z M 25 802 " clip-rule="nonzero"/></clipPath></defs><path fill="#ffbc0d" d="M 341.523438 42.929688 L 764.597656 42.929688 L 764.597656 397.074219 L 341.523438 397.074219 Z M 341.523438 42.929688 " fill-opacity="1" fill-rule="nonzero"/><path fill="#ffffff" d="M 418.917969 104.820312 C 410.367188 104.820312 403.4375 111.746094 403.4375 120.289062 L 403.4375 182.179688 C 403.4375 187.542969 406.167969 192.269531 410.316406 195.046875 L 410.316406 280.171875 L 386.238281 280.171875 L 386.238281 345.5 C 386.238281 354.992188 393.941406 362.691406 403.4375 362.691406 L 434.394531 362.691406 C 443.890625 362.691406 451.59375 354.992188 451.59375 345.5 L 451.59375 280.171875 L 427.515625 280.171875 L 427.515625 195.046875 C 431.664062 192.269531 434.394531 187.542969 434.394531 182.179688 L 434.394531 120.289062 C 434.394531 111.746094 427.464844 104.820312 418.917969 104.820312 Z M 518.664062 104.820312 C 510.117188 104.820312 503.1875 111.746094 503.1875 120.289062 L 503.1875 182.179688 C 503.1875 187.542969 505.917969 192.269531 510.066406 195.046875 L 510.066406 280.171875 L 485.988281 280.171875 L 485.988281 345.5 C 485.988281 354.992188 493.691406 362.691406 503.1875 362.691406 L 534.144531 362.691406 C 543.640625 362.691406 551.339844 354.992188 551.339844 345.5 L 551.339844 280.171875 L 527.265625 280.171875 L 527.265625 195.046875 C 531.410156 192.269531 534.144531 187.542969 534.144531 182.179688 L 534.144531 120.289062 C 534.144531 111.746094 527.210938 104.820312 518.664062 104.820312 Z M 518.664062 104.820312 " fill-opacity="1" fill-rule="evenodd"/><path stroke-linecap="butt" transform="matrix(3.439606, 0, 0, 3.438287, 25.081224, 5.108144)" fill-opacity="1" fill="#ffffff" fill-rule="nonzero" stroke-linejoin="round" d="M 250.000474 11.000112 L 343.999702 11.000112 L 343.999702 141.999665 L 250.000474 141.999665 Z M 250.000474 11.000112 " stroke="#3e3d3d" stroke-width="2" stroke-opacity="1" stroke-miterlimit="4"/><path fill="#ffbc0d" d="M 919.378906 73.875 L 1032.886719 73.875 L 1032.886719 252.664062 L 919.378906 252.664062 Z M 919.378906 73.875 " fill-opacity="1" fill-rule="nonzero"/><path fill="#ffbc0d" d="M 919.378906 280.171875 L 1032.886719 280.171875 L 1032.886719 458.960938 L 919.378906 458.960938 Z M 919.378906 280.171875 " fill-opacity="1" fill-rule="nonzero"/><path fill="#ffbc0d" d="M 1063.84375 73.875 L 1173.910156 73.875 L 1173.910156 252.664062 L 1063.84375 252.664062 Z M 1063.84375 73.875 " fill-opacity="1" fill-rule="nonzero"/><path fill="#ffbc0d" d="M 1063.84375 280.171875 L 1173.910156 280.171875 L 1173.910156 458.960938 L 1063.84375 458.960938 Z M 1063.84375 280.171875 " fill-opacity="1" fill-rule="nonzero"/><path fill="#ffffff" d="M 922.820312 169.601562 L 995.730469 73.875 L 1025.902344 73.875 L 922.820312 213.6875 Z M 922.820312 169.601562 " fill-opacity="1" fill-rule="nonzero"/><path fill="#ffffff" d="M 1029.671875 106.621094 L 922.820312 248.953125 L 934.132812 248.953125 L 1029.671875 122.996094 Z M 1029.671875 106.621094 " fill-opacity="1" fill-rule="nonzero"/><path fill="#ffffff" d="M 1112.644531 73.875 L 1064.871094 131.8125 L 1064.871094 170.859375 L 1142.8125 73.875 Z M 1112.644531 73.875 " fill-opacity="1" fill-rule="nonzero"/><path fill="#ffffff" d="M 1157.898438 73.875 L 1064.871094 187.234375 L 1064.871094 202.351562 L 1170.46875 73.875 Z M 1157.898438 73.875 " fill-opacity="1" fill-rule="nonzero"/><path fill="#ffffff" d="M 999.5 280.445312 L 922.820312 381.207031 L 922.820312 421.515625 L 1030.929688 280.445312 Z M 999.5 280.445312 " fill-opacity="1" fill-rule="nonzero"/><path fill="#ffffff" d="M 1030.929688 300.597656 L 922.820312 440.410156 L 922.820312 455.523438 L 1030.929688 314.453125 Z M 1030.929688 300.597656 " fill-opacity="1" fill-rule="nonzero"/><path fill="#ffffff" d="M 1141.234375 280.445312 L 1064.550781 381.207031 L 1064.550781 421.515625 L 1172.660156 280.445312 Z M 1141.234375 280.445312 " fill-opacity="1" fill-rule="nonzero"/><path fill="#ffffff" d="M 1172.660156 300.597656 L 1064.550781 440.410156 L 1064.550781 455.523438 L 1172.660156 314.453125 Z M 1172.660156 300.597656 " fill-opacity="1" fill-rule="nonzero"/><path fill="#3e3d3d" d="M 601.675781 187.835938 C 587.222656 207.457031 585.117188 228.710938 585.867188 236.886719 L 621.996094 301.550781 L 777.804688 328.308594 L 816.191406 230.199219 C 812.425781 222.765625 802.640625 212.359375 802.640625 181.144531 C 802.640625 147.035156 816.191406 105.335938 793.609375 83.039062 C 771.027344 60.738281 798.125 62.972656 757.480469 22.835938 C 724.964844 -9.273438 668.664062 9.457031 655.871094 22.835938 C 606.191406 38.445312 621.996094 103.105469 621.996094 120.941406 C 621.996094 138.78125 619.742188 163.308594 601.675781 187.835938 Z M 601.675781 187.835938 " fill-opacity="1" fill-rule="nonzero"/><path fill="#f1baa9" d="M 667.007812 212.03125 C 663.488281 217.355469 634.746094 221.648438 620.8125 223.125 L 609.8125 238.660156 C 617.148438 252.714844 632.25 282.601562 634.011719 289.703125 C 635.773438 296.804688 691.9375 300.0625 719.800781 300.800781 L 798.992188 278.609375 L 798.992188 223.125 C 784.324219 221.648438 754.117188 217.355469 750.597656 212.03125 C 747.078125 206.703125 749.132812 195.015625 750.597656 189.839844 C 762.917969 180.960938 770.394531 158.027344 772.597656 147.671875 C 768.199219 145.453125 759.394531 127.699219 754.996094 105.507812 C 750.597656 83.3125 733 72.21875 708.800781 72.21875 C 689.445312 72.21875 678.742188 61.859375 675.804688 56.683594 C 660.40625 69.996094 667.007812 85.53125 667.007812 98.847656 C 667.007812 109.5 652.339844 126.957031 645.011719 134.355469 C 645.011719 164.539062 659.675781 183.921875 667.007812 189.839844 C 668.472656 195.015625 670.527344 206.703125 667.007812 212.03125 Z M 667.007812 212.03125 " fill-opacity="1" fill-rule="nonzero"/><path fill="#ffbc0d" d="M 578.859375 555.234375 C 580.234375 618.5 563.953125 729.441406 554.78125 778.722656 L 855.746094 775.285156 C 830.980469 658.382812 835.109375 450.941406 840.269531 376.441406 L 871.222656 464.121094 L 840.269531 624 L 886.703125 634.316406 C 906.765625 583.316406 939.671875 475.464844 938.296875 452.085938 C 936.578125 422.859375 909.058594 302.519531 874.664062 256.101562 C 847.148438 218.96875 789.25 211.980469 764.597656 213.125 C 758.863281 228.597656 740.863281 254.382812 707.84375 254.382812 C 674.824219 254.382812 664.273438 228.597656 657.96875 213.125 C 643.066406 214.84375 592.273438 220 570.257812 233.753906 C 542.742188 250.945312 449.871094 345.5 444.714844 395.355469 C 440.585938 435.238281 463.632812 507.097656 475.667969 538.042969 L 527.265625 505.378906 C 520.957031 482.457031 511.785156 443.488281 515.226562 424.578125 C 522.105469 414.953125 557.644531 378.738281 570.257812 367.847656 C 573.699219 399.9375 577.480469 491.96875 578.859375 555.234375 Z M 578.859375 555.234375 " fill-opacity="1" fill-rule="nonzero"/><path stroke-linecap="butt" transform="matrix(3.439606, 0, 0, 3.438287, 25.081224, 5.108144)" fill="none" stroke-linejoin="miter" d="M 200.000426 176.999606 L 200.999814 176.999606 L 200.999814 184.000276 L 200.000426 184.000276 Z M 200.000426 176.999606 " stroke="#3e3d3d" stroke-width="2" stroke-opacity="1" stroke-miterlimit="4"/><path fill="#db0007" d="M 597.777344 348.9375 C 601.722656 338.410156 610.1875 260.957031 614.425781 218.640625 C 614.75 215.410156 617.285156 212.867188 620.511719 212.507812 L 637.523438 210.621094 C 641.859375 210.136719 645.542969 213.761719 645.144531 218.101562 C 641.042969 262.65625 634.75 339.910156 637.332031 348.9375 C 640.769531 360.972656 771.476562 357.53125 776.636719 348.9375 C 780.523438 342.453125 778.609375 263.121094 776.933594 217.570312 C 776.78125 213.398438 780.347656 210.058594 784.503906 210.472656 L 805.070312 212.527344 C 808.484375 212.871094 811.128906 215.652344 811.261719 219.082031 C 813.09375 266.011719 816.996094 350.945312 819.628906 357.53125 C 822.382812 364.410156 835.683594 376.441406 841.988281 381.601562 C 837.859375 404.980469 838.546875 581.019531 845.425781 679.011719 L 565.097656 685.890625 C 578.859375 618.5 574.273438 453.804688 570.257812 379.882812 C 577.710938 374.148438 593.648438 359.9375 597.777344 348.9375 Z M 597.777344 348.9375 " fill-opacity="1" fill-rule="nonzero"/><path fill="#f1baa9" d="M 876.382812 654.945312 L 883.261719 630.875 L 845.425781 615.402344 L 829.949219 654.945312 Z M 876.382812 654.945312 " fill-opacity="1" fill-rule="nonzero"/><path fill="#ffbc0d" d="M 826.507812 653.226562 L 898.742188 653.226562 C 899.191406 653.226562 899.640625 653.269531 900.082031 653.355469 C 900.527344 653.445312 900.957031 653.574219 901.375 653.75 C 901.789062 653.921875 902.1875 654.132812 902.5625 654.382812 C 902.9375 654.636719 903.285156 654.921875 903.605469 655.238281 C 903.925781 655.558594 904.210938 655.90625 904.460938 656.28125 C 904.710938 656.65625 904.921875 657.054688 905.097656 657.46875 C 905.269531 657.886719 905.398438 658.316406 905.488281 658.761719 C 905.578125 659.203125 905.621094 659.648438 905.621094 660.101562 L 905.621094 684.167969 C 905.621094 684.621094 905.578125 685.070312 905.488281 685.511719 C 905.398438 685.953125 905.269531 686.382812 905.097656 686.800781 C 904.921875 687.21875 904.710938 687.613281 904.460938 687.988281 C 904.210938 688.367188 903.925781 688.714844 903.605469 689.03125 C 903.285156 689.351562 902.9375 689.636719 902.5625 689.886719 C 902.1875 690.136719 901.789062 690.351562 901.375 690.523438 C 900.957031 690.695312 900.527344 690.824219 900.082031 690.914062 C 899.640625 691.003906 899.191406 691.046875 898.742188 691.046875 L 826.507812 691.046875 C 826.058594 691.046875 825.609375 691.003906 825.167969 690.914062 C 824.722656 690.824219 824.292969 690.695312 823.875 690.523438 C 823.460938 690.351562 823.0625 690.136719 822.6875 689.886719 C 822.3125 689.636719 821.964844 689.351562 821.644531 689.03125 C 821.324219 688.714844 821.039062 688.367188 820.789062 687.988281 C 820.539062 687.613281 820.328125 687.21875 820.152344 686.800781 C 819.980469 686.382812 819.851562 685.953125 819.761719 685.511719 C 819.675781 685.070312 819.628906 684.621094 819.628906 684.167969 L 819.628906 660.101562 C 819.628906 659.648438 819.675781 659.203125 819.761719 658.761719 C 819.851562 658.316406 819.980469 657.886719 820.152344 657.46875 C 820.328125 657.054688 820.539062 656.65625 820.789062 656.28125 C 821.039062 655.90625 821.324219 655.558594 821.644531 655.238281 C 821.964844 654.921875 822.3125 654.636719 822.6875 654.382812 C 823.0625 654.132812 823.460938 653.921875 823.875 653.75 C 824.292969 653.574219 824.722656 653.445312 825.167969 653.355469 C 825.609375 653.269531 826.058594 653.226562 826.507812 653.226562 Z M 826.507812 653.226562 " fill-opacity="1" fill-rule="nonzero"/><path fill="#3e3d3d" d="M 569.359375 768.867188 L 527.914062 667.4375 C 525.140625 660.65625 530.132812 653.226562 537.464844 653.226562 L 850.300781 653.226562 C 857.738281 653.226562 862.730469 660.855469 859.757812 667.667969 L 815.453125 769.09375 C 813.808594 772.855469 810.097656 775.285156 805.996094 775.285156 L 578.910156 775.285156 C 574.714844 775.285156 570.941406 772.75 569.359375 768.867188 Z M 569.359375 768.867188 " fill-opacity="1" fill-rule="nonzero"/><path fill="#db0007" d="M 596.582031 747.460938 C 598.570312 760.628906 604.21875 769.78125 608.941406 774.660156 C 610.523438 776.296875 612.769531 777.003906 615.042969 777.003906 L 767.941406 777.003906 C 771.242188 777.003906 774.59375 775.507812 775.746094 772.414062 C 778.914062 763.90625 771.71875 758.453125 763.796875 755.449219 C 759.683594 753.890625 758.007812 746.9375 758.921875 742.636719 C 759.925781 737.941406 754.359375 737.335938 750.453125 740.136719 C 736.046875 750.4375 717.84375 754.722656 703.523438 756.066406 C 698.613281 756.527344 695.269531 746.386719 693.628906 741.742188 C 692.839844 739.515625 690.777344 739.828125 688.5625 740.644531 C 656.324219 752.5 632.679688 747.867188 617.265625 739.023438 C 609.007812 734.289062 595.164062 738.054688 596.582031 747.460938 Z M 596.582031 747.460938 " fill-opacity="1" fill-rule="nonzero"/><path stroke-linecap="butt" transform="matrix(3.439606, 0, 0, 3.438287, 25.081224, 5.108144)" fill="none" stroke-linejoin="miter" d="M 179.500486 155.999868 C 178.368225 157.231404 176.782833 160.554507 179.500486 164.000309 C 182.217004 167.446111 180.631611 170.769214 179.500486 171.999614 " stroke="#ffffff" stroke-width="2" stroke-opacity="1" stroke-miterlimit="4"/><path stroke-linecap="butt" transform="matrix(3.439606, 0, 0, 3.438287, 25.081224, 5.108144)" fill="none" stroke-linejoin="miter" d="M 208.499765 155.999868 C 207.367504 157.231404 205.783247 160.554507 208.499765 164.000309 C 211.217418 167.446111 209.632025 170.769214 208.499765 171.999614 " stroke="#ffffff" stroke-width="2" stroke-opacity="1" stroke-miterlimit="4"/><path stroke-linecap="butt" transform="matrix(3.439606, 0, 0, 3.438287, 25.081224, 5.108144)" fill="none" stroke-linejoin="miter" d="M 193.499864 150.999877 C 191.613519 152.76879 188.971956 157.546105 193.499864 162.499516 C 198.027771 167.454064 195.387344 172.231379 193.499864 174.000292 " stroke="#ffffff" stroke-width="2" stroke-opacity="1" stroke-miterlimit="4"/><path fill="#db0007" d="M 1101.679688 512.253906 C 1104.429688 543.886719 1087.917969 570.132812 1079.320312 579.300781 C 1021.535156 532.542969 1043.777344 478.445312 1062.121094 457.242188 C 1074.160156 462.398438 1098.925781 480.625 1101.679688 512.253906 Z M 1101.679688 512.253906 " fill-opacity="1" fill-rule="nonzero"/><path fill="#db0007" d="M 1125.753906 620.5625 C 1110.621094 632.9375 1083.90625 633.742188 1072.441406 632.59375 C 1090.328125 576.207031 1134.929688 567.84375 1154.992188 570.707031 C 1151.550781 582.167969 1140.890625 608.183594 1125.753906 620.5625 Z M 1125.753906 620.5625 " fill-opacity="1" fill-rule="nonzero"/><path fill="#db0007" d="M 1053.523438 586.179688 C 1068.65625 602.683594 1072.441406 620.5625 1072.441406 627.4375 C 1018.785156 632.9375 1005.367188 596.492188 1005.367188 577.582031 C 1015.113281 573.570312 1038.390625 569.675781 1053.523438 586.179688 Z M 1053.523438 586.179688 " fill-opacity="1" fill-rule="nonzero"/><path stroke-linecap="butt" transform="matrix(3.439606, 0, 0, 3.438287, 25.081224, 5.108144)" fill="none" stroke-linejoin="miter" d="M 304.500038 192.499466 C 304.000345 188.500382 304.210443 179.192286 305.500562 173.000521 C 308.000167 160.99986 305.667505 152.166655 304.500038 145.5 " stroke="#f15846" stroke-width="2" stroke-opacity="1" stroke-miterlimit="4"/><path fill="#ffbc0d" d="M 1005.367188 665.257812 L 1136.074219 665.257812 L 1117.15625 775.285156 L 1026.007812 775.285156 Z M 1005.367188 665.257812 " fill-opacity="1" fill-rule="nonzero"/><path fill="#ffbc0d" d="M 238.335938 201.089844 L 293.371094 201.089844 L 293.371094 397.074219 L 238.335938 397.074219 Z M 238.335938 201.089844 " fill-opacity="1" fill-rule="nonzero"/><path fill="#ffbc0d" d="M 197.0625 775.285156 L 1232.382812 775.285156 L 1232.382812 806.230469 L 197.0625 806.230469 Z M 197.0625 775.285156 " fill-opacity="1" fill-rule="nonzero"/><g clip-path="url(#ac38151771)"><path stroke-linecap="round" transform="matrix(3.439606, 0, 0, 3.438287, 25.081224, 5.108144)" fill="none" stroke-linejoin="round" d="M 0.999622 233.00042 L 398.500401 233.00042 " stroke="#3e3d3d" stroke-width="2" stroke-opacity="1" stroke-miterlimit="4"/></g><path fill="#3e3d3d" d="M 568.984375 535.109375 L 449.605469 555.257812 C 444.035156 556.195312 440.253906 561.441406 441.125 567.019531 L 446.527344 601.566406 C 447.421875 607.277344 452.832031 611.136719 458.523438 610.128906 L 580.25 588.566406 C 582.683594 588.136719 584.878906 586.847656 586.4375 584.941406 L 597.273438 571.703125 C 598.714844 569.941406 600.695312 568.707031 602.914062 568.191406 L 647.988281 557.675781 C 649.738281 557.269531 650.878906 555.582031 650.605469 553.808594 L 648.195312 538.160156 C 647.898438 536.21875 646.042969 534.925781 644.125 535.308594 L 599.199219 544.289062 C 597.152344 544.699219 595.027344 544.480469 593.113281 543.65625 L 574.769531 535.800781 C 572.949219 535.019531 570.941406 534.78125 568.984375 535.109375 Z M 568.984375 535.109375 " fill-opacity="1" fill-rule="nonzero"/><path fill="#f1baa9" d="M 477.390625 558.835938 C 477.390625 549.210938 473.949219 541.074219 472.230469 538.207031 C 472.230469 534.769531 473.949219 526.515625 480.828125 521.015625 C 489.429688 514.140625 523.824219 502.105469 534.144531 503.824219 C 539.644531 504.742188 545.957031 511.304688 550.746094 517.621094 C 554.800781 522.960938 556.15625 529.765625 555.519531 536.445312 L 553.425781 558.4375 C 553.207031 560.773438 551.625 562.753906 549.402344 563.496094 C 545.921875 564.65625 542.234375 562.402344 541.675781 558.777344 L 539.6875 545.859375 C 539.433594 544.210938 538.875 542.621094 538.050781 541.175781 L 532.421875 531.332031 L 536.019531 543.316406 C 537.054688 546.75 537.378906 550.363281 536.980469 553.925781 L 534.71875 574.304688 C 534.378906 577.34375 532.027344 579.769531 528.996094 580.203125 C 525.230469 580.738281 521.773438 578.046875 521.375 574.265625 L 519.085938 552.546875 C 518.808594 549.886719 518.050781 547.296875 516.855469 544.90625 L 510.066406 531.332031 L 512.804688 545.023438 C 513.269531 547.34375 513.355469 549.71875 513.0625 552.0625 L 510.792969 570.199219 C 510.378906 573.53125 507.546875 576.027344 504.191406 576.027344 C 500.714844 576.027344 497.820312 573.355469 497.554688 569.886719 L 496.472656 555.839844 C 496.363281 554.40625 496.078125 552.992188 495.621094 551.628906 L 492.867188 543.363281 L 492.867188 553.875 C 492.867188 554.890625 492.785156 555.902344 492.617188 556.902344 L 490.335938 570.585938 C 489.8125 573.730469 487.09375 576.027344 483.90625 576.027344 C 480.304688 576.027344 477.390625 573.117188 477.390625 569.515625 Z M 477.390625 558.835938 " fill-opacity="1" fill-rule="nonzero"/><path stroke-linecap="butt" transform="matrix(3.439606, 0, 0, 3.438287, 25.081224, 5.108144)" fill-opacity="1" fill="#ffffff" fill-rule="nonzero" stroke-linejoin="miter" d="M 63.000272 181.499712 L 96.000508 181.499712 L 96.000508 223.500323 L 63.000272 223.500323 Z M 63.000272 181.499712 " stroke="#3e3d3d" stroke-width="2" stroke-opacity="1" stroke-miterlimit="4"/><path stroke-linecap="butt" transform="matrix(3.439606, 0, 0, 3.438287, 25.081224, 5.108144)" fill-opacity="1" fill="#db0007" fill-rule="nonzero" stroke-linejoin="miter" d="M 63.000272 196.499687 L 96.000508 196.499687 L 96.000508 208.500348 L 63.000272 208.500348 Z M 63.000272 196.499687 " stroke="#3e3d3d" stroke-width="2" stroke-opacity="1" stroke-miterlimit="4"/><path fill="#3e3d3d" d="M 255.535156 605.089844 C 255.535156 599.390625 260.15625 594.773438 265.855469 594.773438 L 331.207031 594.773438 C 336.90625 594.773438 341.523438 599.390625 341.523438 605.089844 L 341.523438 632.59375 L 255.535156 632.59375 Z M 255.535156 605.089844 " fill-opacity="1" fill-rule="nonzero"/></svg>